<?xml version="1.0" encoding="UTF-8" standalone="no"?>
<!DOCTYPE svg PUBLIC "-//W3C//DTD SVG 1.1//EN"
 "http://www.w3.org/Graphics/SVG/1.1/DTD/svg11.dtd">
<!-- Generated by graphviz version 7.0.5 (20221231.0122)
 -->
<!-- Title: snakemake_dag Pages: 1 -->
<svg width="1755pt" height="1268pt"
 viewBox="0.00 0.00 1755.00 1268.00" xmlns="http://www.w3.org/2000/svg" xmlns:xlink="http://www.w3.org/1999/xlink">
<g id="graph0" class="graph" transform="scale(1 1) rotate(0) translate(4 1264)">
<title>snakemake_dag</title>
<polygon fill="white" stroke="none" points="-4,4 -4,-1264 1751,-1264 1751,4 -4,4"/>
<!-- 0 -->
<g id="node1" class="node">
<title>0</title>
<path fill="none" stroke="#d8b456" stroke-width="2" d="M896,-36C896,-36 866,-36 866,-36 860,-36 854,-30 854,-24 854,-24 854,-12 854,-12 854,-6 860,0 866,0 866,0 896,0 896,0 902,0 908,-6 908,-12 908,-12 908,-24 908,-24 908,-30 902,-36 896,-36"/>
<text text-anchor="middle" x="881" y="-15.5" font-family="sans" font-size="10.00">all</text>
</g>
<!-- 1 -->
<g id="node2" class="node">
<title>1</title>
<path fill="none" stroke="#70d856" stroke-width="2" d="M1346,-900C1346,-900 1286,-900 1286,-900 1280,-900 1274,-894 1274,-888 1274,-888 1274,-876 1274,-876 1274,-870 1280,-864 1286,-864 1286,-864 1346,-864 1346,-864 1352,-864 1358,-870 1358,-876 1358,-876 1358,-888 1358,-888 1358,-894 1352,-900 1346,-900"/>
<text text-anchor="middle" x="1316" y="-879.5" font-family="sans" font-size="10.00">variant_counts</text>
</g>
<!-- 1&#45;&gt;0 -->
<g id="edge3" class="edge">
<title>1&#45;&gt;0</title>
<path fill="none" stroke="grey" stroke-width="2" d="M1339.34,-863.08C1351.62,-853.23 1366.65,-840.51 1379,-828 1469.64,-736.19 1747,-508.01 1747,-379 1747,-379 1747,-379 1747,-161 1747,-68.55 1648.34,-95.77 1559,-72 1437.49,-39.67 1048.86,-24.45 921.69,-20.25"/>
<polygon fill="grey" stroke="grey" stroke-width="2" points="921.99,-16.76 911.89,-19.93 921.77,-23.75 921.99,-16.76"/>
</g>
<!-- 10 -->
<g id="node11" class="node">
<title>10</title>
<path fill="none" stroke="#56d8a9" stroke-width="2" d="M1198.5,-828C1198.5,-828 1099.5,-828 1099.5,-828 1093.5,-828 1087.5,-822 1087.5,-816 1087.5,-816 1087.5,-804 1087.5,-804 1087.5,-798 1093.5,-792 1099.5,-792 1099.5,-792 1198.5,-792 1198.5,-792 1204.5,-792 1210.5,-798 1210.5,-804 1210.5,-804 1210.5,-816 1210.5,-816 1210.5,-822 1204.5,-828 1198.5,-828"/>
<text text-anchor="middle" x="1149" y="-807.5" font-family="sans" font-size="10.00">analyze_variant_counts</text>
</g>
<!-- 1&#45;&gt;10 -->
<g id="edge19" class="edge">
<title>1&#45;&gt;10</title>
<path fill="none" stroke="grey" stroke-width="2" d="M1273.43,-863.15C1252.21,-854.26 1226.31,-843.41 1203.65,-833.91"/>
<polygon fill="grey" stroke="grey" stroke-width="2" points="1205.15,-830.74 1194.58,-830.1 1202.45,-837.2 1205.15,-830.74"/>
</g>
<!-- 14 -->
<g id="node15" class="node">
<title>14</title>
<path fill="none" stroke="#d85656" stroke-width="2" d="M966.5,-684C966.5,-684 919.5,-684 919.5,-684 913.5,-684 907.5,-678 907.5,-672 907.5,-672 907.5,-660 907.5,-660 907.5,-654 913.5,-648 919.5,-648 919.5,-648 966.5,-648 966.5,-648 972.5,-648 978.5,-654 978.5,-660 978.5,-660 978.5,-672 978.5,-672 978.5,-678 972.5,-684 966.5,-684"/>
<text text-anchor="middle" x="943" y="-663.5" font-family="sans" font-size="10.00">func_scores</text>
</g>
<!-- 1&#45;&gt;14 -->
<g id="edge30" class="edge">
<title>1&#45;&gt;14</title>
<path fill="none" stroke="grey" stroke-width="2" d="M1307.05,-863C1288.91,-828.66 1244.28,-754.15 1183,-720 1122.78,-686.44 1042.98,-674.13 992.3,-669.62"/>
<polygon fill="grey" stroke="grey" stroke-width="2" points="992.71,-666.14 982.46,-668.82 992.15,-673.11 992.71,-666.14"/>
</g>
<!-- 16 -->
<g id="node17" class="node">
<title>16</title>
<path fill="none" stroke="#56d863" stroke-width="2" d="M877.5,-684C877.5,-684 826.5,-684 826.5,-684 820.5,-684 814.5,-678 814.5,-672 814.5,-672 814.5,-660 814.5,-660 814.5,-654 820.5,-648 826.5,-648 826.5,-648 877.5,-648 877.5,-648 883.5,-648 889.5,-654 889.5,-660 889.5,-660 889.5,-672 889.5,-672 889.5,-678 883.5,-684 877.5,-684"/>
<text text-anchor="middle" x="852" y="-663.5" font-family="sans" font-size="10.00">prob_escape</text>
</g>
<!-- 1&#45;&gt;16 -->
<g id="edge37" class="edge">
<title>1&#45;&gt;16</title>
<path fill="none" stroke="grey" stroke-width="2" d="M1296.32,-863.18C1285.06,-852.94 1270.68,-839.8 1258,-828 1240.97,-812.15 1240.84,-802.34 1220,-792 1131.64,-748.15 1093.64,-789.89 1001,-756 958.59,-740.49 914.78,-712.64 885.73,-692.21"/>
<polygon fill="grey" stroke="grey" stroke-width="2" points="887.99,-689.52 877.82,-686.55 883.92,-695.22 887.99,-689.52"/>
</g>
<!-- 17 -->
<g id="node18" class="node">
<title>17</title>
<path fill="none" stroke="#56c9d8" stroke-width="2" d="M906,-108C906,-108 856,-108 856,-108 850,-108 844,-102 844,-96 844,-96 844,-84 844,-84 844,-78 850,-72 856,-72 856,-72 906,-72 906,-72 912,-72 918,-78 918,-84 918,-84 918,-96 918,-96 918,-102 912,-108 906,-108"/>
<text text-anchor="middle" x="881" y="-87.5" font-family="sans" font-size="10.00">sphinx_build</text>
</g>
<!-- 1&#45;&gt;17 -->
<g id="edge49" class="edge">
<title>1&#45;&gt;17</title>
<path fill="none" stroke="grey" stroke-width="2" d="M1331.38,-863.22C1339.44,-853.31 1349.04,-840.48 1356,-828 1414.53,-723.05 1406.9,-686.55 1454,-576 1502.4,-462.4 1544.37,-444.58 1571,-324 1581.35,-277.13 1600.49,-253.87 1571,-216 1492.39,-115.06 1077.72,-95.61 931.83,-91.88"/>
<polygon fill="grey" stroke="grey" stroke-width="2" points="932.08,-88.38 922,-91.65 931.91,-95.38 932.08,-88.38"/>
</g>
<!-- 26 -->
<g id="node27" class="node">
<title>26</title>
<path fill="none" stroke="#d86656" stroke-width="2" d="M1105.5,-180C1105.5,-180 1062.5,-180 1062.5,-180 1056.5,-180 1050.5,-174 1050.5,-168 1050.5,-168 1050.5,-156 1050.5,-156 1050.5,-150 1056.5,-144 1062.5,-144 1062.5,-144 1105.5,-144 1105.5,-144 1111.5,-144 1117.5,-150 1117.5,-156 1117.5,-156 1117.5,-168 1117.5,-168 1117.5,-174 1111.5,-180 1105.5,-180"/>
<text text-anchor="middle" x="1084" y="-159.5" font-family="sans" font-size="10.00">docs_index</text>
</g>
<!-- 1&#45;&gt;26 -->
<g id="edge86" class="edge">
<title>1&#45;&gt;26</title>
<path fill="none" stroke="grey" stroke-width="2" d="M1324.06,-863.03C1335.21,-836.48 1354,-784.94 1354,-739 1354,-739 1354,-739 1354,-665 1354,-461.9 1420.28,-351.51 1269,-216 1230.91,-181.88 1172.23,-169.61 1131.2,-165.27"/>
<polygon fill="grey" stroke="grey" stroke-width="2" points="1131.57,-161.79 1121.3,-164.37 1130.94,-168.76 1131.57,-161.79"/>
</g>
<!-- 2 -->
<g id="node3" class="node">
<title>2</title>
<path fill="none" stroke="#567bd8" stroke-width="2" d="M1136.5,-972C1136.5,-972 1071.5,-972 1071.5,-972 1065.5,-972 1059.5,-966 1059.5,-960 1059.5,-960 1059.5,-948 1059.5,-948 1059.5,-942 1065.5,-936 1071.5,-936 1071.5,-936 1136.5,-936 1136.5,-936 1142.5,-936 1148.5,-942 1148.5,-948 1148.5,-948 1148.5,-960 1148.5,-960 1148.5,-966 1142.5,-972 1136.5,-972"/>
<text text-anchor="middle" x="1104" y="-951.5" font-family="sans" font-size="10.00">count_barcodes</text>
</g>
<!-- 2&#45;&gt;1 -->
<g id="edge6" class="edge">
<title>2&#45;&gt;1</title>
<path fill="none" stroke="grey" stroke-width="2" d="M1149.48,-937.98C1182.1,-927.21 1226.21,-912.65 1260.84,-901.21"/>
<polygon fill="grey" stroke="grey" stroke-width="2" points="1261.85,-904.56 1270.25,-898.11 1259.66,-897.92 1261.85,-904.56"/>
</g>
<!-- 2&#45;&gt;10 -->
<g id="edge20" class="edge">
<title>2&#45;&gt;10</title>
<path fill="none" stroke="grey" stroke-width="2" d="M1109.7,-935.02C1117.17,-911.44 1130.39,-869.73 1139.41,-841.25"/>
<polygon fill="grey" stroke="grey" stroke-width="2" points="1142.75,-842.31 1142.43,-831.72 1136.08,-840.2 1142.75,-842.31"/>
</g>
<!-- 3 -->
<g id="node4" class="node">
<title>3</title>
<path fill="none" stroke="#566bd8" stroke-width="2" d="M1013.5,-1044C1013.5,-1044 924.5,-1044 924.5,-1044 918.5,-1044 912.5,-1038 912.5,-1032 912.5,-1032 912.5,-1020 912.5,-1020 912.5,-1014 918.5,-1008 924.5,-1008 924.5,-1008 1013.5,-1008 1013.5,-1008 1019.5,-1008 1025.5,-1014 1025.5,-1020 1025.5,-1020 1025.5,-1032 1025.5,-1032 1025.5,-1038 1019.5,-1044 1013.5,-1044"/>
<text text-anchor="middle" x="969" y="-1023.5" font-family="sans" font-size="10.00">build_codon_variants</text>
</g>
<!-- 3&#45;&gt;1 -->
<g id="edge8" class="edge">
<title>3&#45;&gt;1</title>
<path fill="none" stroke="grey" stroke-width="2" d="M1026.43,-1012.69C1064.53,-1003.61 1115.19,-989.76 1158,-972 1200.99,-954.17 1247.03,-927.25 1278.25,-907.69"/>
<polygon fill="grey" stroke="grey" stroke-width="2" points="1279.92,-910.77 1286.49,-902.46 1276.17,-904.86 1279.92,-910.77"/>
</g>
<!-- 3&#45;&gt;2 -->
<g id="edge9" class="edge">
<title>3&#45;&gt;2</title>
<path fill="none" stroke="grey" stroke-width="2" d="M1003.42,-1007.15C1020.08,-998.52 1040.31,-988.02 1058.25,-978.72"/>
<polygon fill="grey" stroke="grey" stroke-width="2" points="1059.69,-981.92 1066.96,-974.21 1056.47,-975.7 1059.69,-981.92"/>
</g>
<!-- 3&#45;&gt;10 -->
<g id="edge22" class="edge">
<title>3&#45;&gt;10</title>
<path fill="none" stroke="grey" stroke-width="2" d="M984.04,-1007.12C1015.4,-969.83 1088.01,-883.51 1125.56,-838.86"/>
<polygon fill="grey" stroke="grey" stroke-width="2" points="1128.17,-841.2 1131.93,-831.29 1122.82,-836.69 1128.17,-841.2"/>
</g>
<!-- 3&#45;&gt;14 -->
<g id="edge33" class="edge">
<title>3&#45;&gt;14</title>
<path fill="none" stroke="grey" stroke-width="2" d="M963.82,-1007.24C956.5,-980.53 944,-928.31 944,-883 944,-883 944,-883 944,-809 944,-770.65 943.63,-726.48 943.34,-697.72"/>
<polygon fill="grey" stroke="grey" stroke-width="2" points="946.84,-697.92 943.24,-687.96 939.84,-698 946.84,-697.92"/>
</g>
<!-- 3&#45;&gt;16 -->
<g id="edge40" class="edge">
<title>3&#45;&gt;16</title>
<path fill="none" stroke="grey" stroke-width="2" d="M944.81,-1007.04C914.93,-982.59 868,-935.79 868,-883 868,-883 868,-883 868,-809 868,-770.41 862.09,-726.29 857.46,-697.61"/>
<polygon fill="grey" stroke="grey" stroke-width="2" points="860.93,-697.13 855.82,-687.85 854.02,-698.29 860.93,-697.13"/>
</g>
<!-- 3&#45;&gt;17 -->
<g id="edge60" class="edge">
<title>3&#45;&gt;17</title>
<path fill="none" stroke="grey" stroke-width="2" d="M919.39,-1007.01C896.39,-997.83 869.1,-985.7 846,-972 734.36,-905.77 719.42,-870.44 616,-792 412.1,-637.34 152,-706.92 152,-451 152,-451 152,-451 152,-233 152,-166.96 209.29,-167.54 271,-144 372.92,-105.12 703.49,-94.52 830.58,-91.84"/>
<polygon fill="grey" stroke="grey" stroke-width="2" points="830.33,-95.35 840.26,-91.64 830.19,-88.35 830.33,-95.35"/>
</g>
<!-- 22 -->
<g id="node23" class="node">
<title>22</title>
<path fill="none" stroke="#5692d8" stroke-width="2" d="M1047,-324C1047,-324 997,-324 997,-324 991,-324 985,-318 985,-312 985,-312 985,-300 985,-300 985,-294 991,-288 997,-288 997,-288 1047,-288 1047,-288 1053,-288 1059,-294 1059,-300 1059,-300 1059,-312 1059,-312 1059,-318 1053,-324 1047,-324"/>
<text text-anchor="middle" x="1022" y="-303.5" font-family="sans" font-size="10.00">make_nblink</text>
</g>
<!-- 3&#45;&gt;22 -->
<g id="edge70" class="edge">
<title>3&#45;&gt;22</title>
<path fill="none" stroke="grey" stroke-width="2" d="M929.45,-1007.03C913.04,-998.18 894.67,-986.31 881,-972 778.83,-865.05 771.64,-792.1 805,-648 820.97,-579.05 894.53,-413.38 941,-360 950.46,-349.13 962.67,-339.6 974.73,-331.72"/>
<polygon fill="grey" stroke="grey" stroke-width="2" points="976.43,-334.79 983.1,-326.56 972.75,-328.83 976.43,-334.79"/>
</g>
<!-- 3&#45;&gt;26 -->
<g id="edge97" class="edge">
<title>3&#45;&gt;26</title>
<path fill="none" stroke="grey" stroke-width="2" d="M1026.47,-1021.06C1165,-1008.15 1506,-954.48 1506,-739 1506,-739 1506,-739 1506,-665 1506,-555.22 1391.85,-276.12 1300,-216 1248.54,-182.32 1177.5,-170.03 1131.17,-165.56"/>
<polygon fill="grey" stroke="grey" stroke-width="2" points="1131.49,-162.07 1121.22,-164.7 1130.89,-169.05 1131.49,-162.07"/>
</g>
<!-- 4 -->
<g id="node5" class="node">
<title>4</title>
<path fill="none" stroke="#56d89a" stroke-width="2" d="M1542,-1116C1542,-1116 1440,-1116 1440,-1116 1434,-1116 1428,-1110 1428,-1104 1428,-1104 1428,-1092 1428,-1092 1428,-1086 1434,-1080 1440,-1080 1440,-1080 1542,-1080 1542,-1080 1548,-1080 1554,-1086 1554,-1092 1554,-1092 1554,-1104 1554,-1104 1554,-1110 1548,-1116 1542,-1116"/>
<text text-anchor="middle" x="1491" y="-1095.5" font-family="sans" font-size="10.00">build_pacbio_consensus</text>
</g>
<!-- 4&#45;&gt;3 -->
<g id="edge10" class="edge">
<title>4&#45;&gt;3</title>
<path fill="none" stroke="grey" stroke-width="2" d="M1427.25,-1088.45C1329.02,-1075.28 1141.35,-1050.11 1039.3,-1036.43"/>
<polygon fill="grey" stroke="grey" stroke-width="2" points="1039.77,-1032.96 1029.39,-1035.1 1038.84,-1039.9 1039.77,-1032.96"/>
</g>
<!-- 4&#45;&gt;17 -->
<g id="edge53" class="edge">
<title>4&#45;&gt;17</title>
<path fill="none" stroke="grey" stroke-width="2" d="M1524.56,-1079.07C1562.78,-1055.92 1620,-1011.79 1620,-955 1620,-955 1620,-955 1620,-809 1620,-545.15 1729.94,-440.92 1592,-216 1561.84,-166.82 1538.43,-163.12 1484,-144 1382.48,-108.33 1057.51,-95.81 931.55,-92.23"/>
<polygon fill="grey" stroke="grey" stroke-width="2" points="931.71,-88.74 921.62,-91.96 931.52,-95.73 931.71,-88.74"/>
</g>
<!-- 4&#45;&gt;22 -->
<g id="edge73" class="edge">
<title>4&#45;&gt;22</title>
<path fill="none" stroke="grey" stroke-width="2" d="M1427.42,-1087.04C1318.48,-1068.7 1102.81,-1026.43 1051,-972 957.01,-873.26 991.14,-495.15 1009,-360 1009.98,-352.6 1011.58,-344.74 1013.34,-337.4"/>
<polygon fill="grey" stroke="grey" stroke-width="2" points="1016.68,-338.45 1015.8,-327.9 1009.91,-336.7 1016.68,-338.45"/>
</g>
<!-- 4&#45;&gt;26 -->
<g id="edge90" class="edge">
<title>4&#45;&gt;26</title>
<path fill="none" stroke="grey" stroke-width="2" d="M1498.92,-1079.15C1521.06,-1027.56 1582,-873.35 1582,-739 1582,-739 1582,-739 1582,-665 1582,-579.02 1539.56,-361.53 1495,-288 1470.38,-247.37 1458.8,-236.61 1416,-216 1322.27,-170.88 1198.14,-162.89 1131.36,-162.21"/>
<polygon fill="grey" stroke="grey" stroke-width="2" points="1131.44,-158.71 1121.43,-162.17 1131.42,-165.71 1131.44,-158.71"/>
</g>
<!-- 5 -->
<g id="node6" class="node">
<title>5</title>
<path fill="none" stroke="#56d88a" stroke-width="2" d="M1660,-1188C1660,-1188 1580,-1188 1580,-1188 1574,-1188 1568,-1182 1568,-1176 1568,-1176 1568,-1164 1568,-1164 1568,-1158 1574,-1152 1580,-1152 1580,-1152 1660,-1152 1660,-1152 1666,-1152 1672,-1158 1672,-1164 1672,-1164 1672,-1176 1672,-1176 1672,-1182 1666,-1188 1660,-1188"/>
<text text-anchor="middle" x="1620" y="-1167.5" font-family="sans" font-size="10.00">analyze_pacbio_ccs</text>
</g>
<!-- 5&#45;&gt;4 -->
<g id="edge14" class="edge">
<title>5&#45;&gt;4</title>
<path fill="none" stroke="grey" stroke-width="2" d="M1587.11,-1151.15C1571.34,-1142.6 1552.23,-1132.22 1535.21,-1122.99"/>
<polygon fill="grey" stroke="grey" stroke-width="2" points="1536.95,-1119.95 1526.49,-1118.26 1533.61,-1126.1 1536.95,-1119.95"/>
</g>
<!-- 5&#45;&gt;17 -->
<g id="edge52" class="edge">
<title>5&#45;&gt;17</title>
<path fill="none" stroke="grey" stroke-width="2" d="M1640.64,-1151.07C1666.93,-1126.12 1709,-1078.21 1709,-1027 1709,-1027 1709,-1027 1709,-377 1709,-248.29 1654.89,-195.66 1537,-144 1428.61,-96.5 1066.15,-91.17 931.73,-90.86"/>
<polygon fill="grey" stroke="grey" stroke-width="2" points="931.74,-87.36 921.73,-90.85 931.73,-94.36 931.74,-87.36"/>
</g>
<!-- 5&#45;&gt;22 -->
<g id="edge75" class="edge">
<title>5&#45;&gt;22</title>
<path fill="none" stroke="grey" stroke-width="2" d="M1612.09,-1151.3C1583.83,-1088.94 1483.27,-874.93 1367,-720 1246.08,-558.87 1153.52,-568.83 1050,-396 1039.19,-377.95 1032.14,-355.3 1027.82,-337.37"/>
<polygon fill="grey" stroke="grey" stroke-width="2" points="1031.26,-336.7 1025.68,-327.69 1024.42,-338.21 1031.26,-336.7"/>
</g>
<!-- 5&#45;&gt;26 -->
<g id="edge89" class="edge">
<title>5&#45;&gt;26</title>
<path fill="none" stroke="grey" stroke-width="2" d="M1628.06,-1151.03C1639.21,-1124.48 1658,-1072.94 1658,-1027 1658,-1027 1658,-1027 1658,-809 1658,-669.79 1577.86,-283.32 1456,-216 1401.06,-185.65 1218.56,-170.98 1131.28,-165.57"/>
<polygon fill="grey" stroke="grey" stroke-width="2" points="1131.59,-162.08 1121.4,-164.97 1131.17,-169.07 1131.59,-162.08"/>
</g>
<!-- 6 -->
<g id="node7" class="node">
<title>6</title>
<path fill="none" stroke="#88d856" stroke-width="2" d="M1669,-1260C1669,-1260 1571,-1260 1571,-1260 1565,-1260 1559,-1254 1559,-1248 1559,-1248 1559,-1236 1559,-1236 1559,-1230 1565,-1224 1571,-1224 1571,-1224 1669,-1224 1669,-1224 1675,-1224 1681,-1230 1681,-1236 1681,-1236 1681,-1248 1681,-1248 1681,-1254 1675,-1260 1669,-1260"/>
<text text-anchor="middle" x="1620" y="-1239.5" font-family="sans" font-size="10.00">align_parse_PacBio_ccs</text>
</g>
<!-- 6&#45;&gt;5 -->
<g id="edge15" class="edge">
<title>6&#45;&gt;5</title>
<path fill="none" stroke="grey" stroke-width="2" d="M1620,-1223.34C1620,-1216.75 1620,-1209.08 1620,-1201.67"/>
<polygon fill="grey" stroke="grey" stroke-width="2" points="1623.5,-1201.93 1620,-1191.93 1616.5,-1201.93 1623.5,-1201.93"/>
</g>
<!-- 7 -->
<g id="node8" class="node">
<title>7</title>
<path fill="none" stroke="#56b9d8" stroke-width="2" d="M1002,-1188C1002,-1188 936,-1188 936,-1188 930,-1188 924,-1182 924,-1176 924,-1176 924,-1164 924,-1164 924,-1158 930,-1152 936,-1152 936,-1152 1002,-1152 1002,-1152 1008,-1152 1014,-1158 1014,-1164 1014,-1164 1014,-1176 1014,-1176 1014,-1182 1008,-1188 1002,-1188"/>
<text text-anchor="middle" x="969" y="-1167.5" font-family="sans" font-size="10.00">gene_sequence</text>
</g>
<!-- 7&#45;&gt;1 -->
<g id="edge7" class="edge">
<title>7&#45;&gt;1</title>
<path fill="none" stroke="grey" stroke-width="2" d="M1014.98,-1164.97C1080.78,-1158.32 1197.35,-1143.05 1229,-1116 1290.2,-1063.68 1308.41,-963.96 1313.78,-913.65"/>
<polygon fill="grey" stroke="grey" stroke-width="2" points="1317.25,-914.15 1314.69,-903.86 1310.28,-913.49 1317.25,-914.15"/>
</g>
<!-- 7&#45;&gt;3 -->
<g id="edge12" class="edge">
<title>7&#45;&gt;3</title>
<path fill="none" stroke="grey" stroke-width="2" d="M969,-1151.02C969,-1127.54 969,-1086.11 969,-1057.64"/>
<polygon fill="grey" stroke="grey" stroke-width="2" points="972.5,-1057.87 969,-1047.87 965.5,-1057.87 972.5,-1057.87"/>
</g>
<!-- 7&#45;&gt;4 -->
<g id="edge13" class="edge">
<title>7&#45;&gt;4</title>
<path fill="none" stroke="grey" stroke-width="2" d="M1014.7,-1165.06C1095.56,-1157.75 1269.02,-1140.58 1414,-1116 1414.27,-1115.95 1414.54,-1115.91 1414.81,-1115.86"/>
<polygon fill="grey" stroke="grey" stroke-width="2" points="1415.05,-1119.38 1424.25,-1114.13 1413.78,-1112.49 1415.05,-1119.38"/>
</g>
<!-- 8 -->
<g id="node9" class="node">
<title>8</title>
<path fill="none" stroke="#56d8c1" stroke-width="2" d="M666,-1116C666,-1116 576,-1116 576,-1116 570,-1116 564,-1110 564,-1104 564,-1104 564,-1092 564,-1092 564,-1086 570,-1080 576,-1080 576,-1080 666,-1080 666,-1080 672,-1080 678,-1086 678,-1092 678,-1092 678,-1104 678,-1104 678,-1110 672,-1116 666,-1116"/>
<text text-anchor="middle" x="621" y="-1095.5" font-family="sans" font-size="10.00">site_numbering_map</text>
</g>
<!-- 7&#45;&gt;8 -->
<g id="edge16" class="edge">
<title>7&#45;&gt;8</title>
<path fill="none" stroke="grey" stroke-width="2" d="M923.15,-1159.78C863.99,-1147.88 760.47,-1127.05 691.33,-1113.15"/>
<polygon fill="grey" stroke="grey" stroke-width="2" points="692.3,-1109.77 681.81,-1111.23 690.92,-1116.63 692.3,-1109.77"/>
</g>
<!-- 7&#45;&gt;10 -->
<g id="edge18" class="edge">
<title>7&#45;&gt;10</title>
<path fill="none" stroke="grey" stroke-width="2" d="M1014.98,-1163.39C1086.18,-1151.85 1215,-1118.35 1215,-1027 1215,-1027 1215,-1027 1215,-953 1215,-910.23 1190.07,-866.4 1170.86,-838.96"/>
<polygon fill="grey" stroke="grey" stroke-width="2" points="1173.82,-837.08 1165.1,-831.05 1168.15,-841.2 1173.82,-837.08"/>
</g>
<!-- 7&#45;&gt;14 -->
<g id="edge29" class="edge">
<title>7&#45;&gt;14</title>
<path fill="none" stroke="grey" stroke-width="2" d="M931.75,-1151.15C890.58,-1128.51 830,-1085.3 830,-1027 830,-1027 830,-1027 830,-809 830,-759.82 872.02,-717.82 904.81,-692.52"/>
<polygon fill="grey" stroke="grey" stroke-width="2" points="906.69,-695.49 912.64,-686.72 902.52,-689.87 906.69,-695.49"/>
</g>
<!-- 7&#45;&gt;16 -->
<g id="edge36" class="edge">
<title>7&#45;&gt;16</title>
<path fill="none" stroke="grey" stroke-width="2" d="M923.19,-1157.35C897.66,-1149.08 866.56,-1135.85 844,-1116 809.6,-1085.74 792,-1072.81 792,-1027 792,-1027 792,-1027 792,-953 792,-857.79 824.24,-748.48 841.46,-696.9"/>
<polygon fill="grey" stroke="grey" stroke-width="2" points="844.69,-698.26 844.6,-687.66 838.07,-696 844.69,-698.26"/>
</g>
<!-- 7&#45;&gt;17 -->
<g id="edge57" class="edge">
<title>7&#45;&gt;17</title>
<path fill="none" stroke="grey" stroke-width="2" d="M923.24,-1167.19C731.17,-1158.98 0,-1121.52 0,-1027 0,-1027 0,-1027 0,-233 0,-183.75 22.76,-167.56 66,-144 132.94,-107.53 662.54,-94.93 830.25,-91.84"/>
<polygon fill="grey" stroke="grey" stroke-width="2" points="830.1,-95.34 840.04,-91.66 829.98,-88.34 830.1,-95.34"/>
</g>
<!-- 7&#45;&gt;26 -->
<g id="edge94" class="edge">
<title>7&#45;&gt;26</title>
<path fill="none" stroke="grey" stroke-width="2" d="M1014.83,-1169.46C1074.5,-1168.15 1180.32,-1159.21 1258,-1116 1441.79,-1013.76 1544,-949.31 1544,-739 1544,-739 1544,-739 1544,-665 1544,-444.32 1519.95,-331.65 1332,-216 1269.74,-177.69 1183.91,-166.78 1131.28,-163.84"/>
<polygon fill="grey" stroke="grey" stroke-width="2" points="1131.5,-160.35 1121.35,-163.38 1131.18,-167.34 1131.5,-160.35"/>
</g>
<!-- 8&#45;&gt;3 -->
<g id="edge11" class="edge">
<title>8&#45;&gt;3</title>
<path fill="none" stroke="grey" stroke-width="2" d="M678.86,-1085.36C739.37,-1073.19 834.39,-1054.08 899.07,-1041.07"/>
<polygon fill="grey" stroke="grey" stroke-width="2" points="899.5,-1044.55 908.62,-1039.15 898.12,-1037.69 899.5,-1044.55"/>
</g>
<!-- 8&#45;&gt;10 -->
<g id="edge21" class="edge">
<title>8&#45;&gt;10</title>
<path fill="none" stroke="grey" stroke-width="2" d="M678.88,-1096.83C760.45,-1094.98 912.91,-1085.61 1035,-1044 1094.96,-1023.57 1126.49,-1026.95 1158,-972 1181.23,-931.48 1170.36,-875.39 1159.97,-841.23"/>
<polygon fill="grey" stroke="grey" stroke-width="2" points="1163.3,-840.18 1156.87,-831.76 1156.65,-842.35 1163.3,-840.18"/>
</g>
<!-- 11 -->
<g id="node12" class="node">
<title>11</title>
<path fill="none" stroke="#d87d56" stroke-width="2" d="M584.5,-468C584.5,-468 493.5,-468 493.5,-468 487.5,-468 481.5,-462 481.5,-456 481.5,-456 481.5,-444 481.5,-444 481.5,-438 487.5,-432 493.5,-432 493.5,-432 584.5,-432 584.5,-432 590.5,-432 596.5,-438 596.5,-444 596.5,-444 596.5,-456 596.5,-456 596.5,-462 590.5,-468 584.5,-468"/>
<text text-anchor="middle" x="539" y="-447.5" font-family="sans" font-size="10.00">avg_antibody_escape</text>
</g>
<!-- 8&#45;&gt;11 -->
<g id="edge24" class="edge">
<title>8&#45;&gt;11</title>
<path fill="none" stroke="grey" stroke-width="2" d="M586.06,-1079.13C546.65,-1056.2 488,-1012.42 488,-955 488,-955 488,-955 488,-593 488,-551.93 507.13,-507.9 521.96,-479.94"/>
<polygon fill="grey" stroke="grey" stroke-width="2" points="524.96,-481.75 526.72,-471.3 518.83,-478.37 524.96,-481.75"/>
</g>
<!-- 13 -->
<g id="node14" class="node">
<title>13</title>
<path fill="none" stroke="#bed856" stroke-width="2" d="M602,-612C602,-612 528,-612 528,-612 522,-612 516,-606 516,-600 516,-600 516,-588 516,-588 516,-582 522,-576 528,-576 528,-576 602,-576 602,-576 608,-576 614,-582 614,-588 614,-588 614,-600 614,-600 614,-606 608,-612 602,-612"/>
<text text-anchor="middle" x="565" y="-591.5" font-family="sans" font-size="10.00">fit_globalepistasis</text>
</g>
<!-- 8&#45;&gt;13 -->
<g id="edge28" class="edge">
<title>8&#45;&gt;13</title>
<path fill="none" stroke="grey" stroke-width="2" d="M608,-1079.09C601.27,-1069.15 593.36,-1056.33 588,-1044 571.66,-1006.43 564,-995.97 564,-955 564,-955 564,-955 564,-737 564,-698.65 564.37,-654.48 564.66,-625.72"/>
<polygon fill="grey" stroke="grey" stroke-width="2" points="568.16,-626 564.76,-615.96 561.16,-625.92 568.16,-626"/>
</g>
<!-- 8&#45;&gt;14 -->
<g id="edge31" class="edge">
<title>8&#45;&gt;14</title>
<path fill="none" stroke="grey" stroke-width="2" d="M628.32,-1079.08C656.14,-1011.7 756.65,-774.67 816,-720 822.32,-714.18 861.63,-698.17 894.86,-685.26"/>
<polygon fill="grey" stroke="grey" stroke-width="2" points="895.87,-688.62 903.94,-681.75 893.35,-682.09 895.87,-688.62"/>
</g>
<!-- 15 -->
<g id="node16" class="node">
<title>15</title>
<path fill="none" stroke="#61d856" stroke-width="2" d="M749.5,-540C749.5,-540 696.5,-540 696.5,-540 690.5,-540 684.5,-534 684.5,-528 684.5,-528 684.5,-516 684.5,-516 684.5,-510 690.5,-504 696.5,-504 696.5,-504 749.5,-504 749.5,-504 755.5,-504 761.5,-510 761.5,-516 761.5,-516 761.5,-528 761.5,-528 761.5,-534 755.5,-540 749.5,-540"/>
<text text-anchor="middle" x="723" y="-519.5" font-family="sans" font-size="10.00">fit_polyclonal</text>
</g>
<!-- 8&#45;&gt;15 -->
<g id="edge34" class="edge">
<title>8&#45;&gt;15</title>
<path fill="none" stroke="grey" stroke-width="2" d="M617.06,-1079.17C611.5,-1052.36 602,-1000.02 602,-955 602,-955 602,-955 602,-737 602,-661.58 659.65,-588.32 695.37,-550.17"/>
<polygon fill="grey" stroke="grey" stroke-width="2" points="697.86,-552.62 702.26,-542.99 692.81,-547.77 697.86,-552.62"/>
</g>
<!-- 8&#45;&gt;16 -->
<g id="edge38" class="edge">
<title>8&#45;&gt;16</title>
<path fill="none" stroke="grey" stroke-width="2" d="M621.6,-1079.11C624.5,-1020.13 641.43,-829.35 740,-720 756.33,-701.88 780.16,-689.42 801.65,-681.15"/>
<polygon fill="grey" stroke="grey" stroke-width="2" points="802.53,-684.55 810.77,-677.89 800.18,-677.96 802.53,-684.55"/>
</g>
<!-- 8&#45;&gt;17 -->
<g id="edge55" class="edge">
<title>8&#45;&gt;17</title>
<path fill="none" stroke="grey" stroke-width="2" d="M563.39,-1096.01C448.53,-1093.23 195.52,-1082.75 119,-1044 71.29,-1019.83 38,-1008.48 38,-955 38,-955 38,-955 38,-305 38,-226.97 44.25,-188.99 108,-144 166.79,-102.51 667.39,-93.35 830.12,-91.46"/>
<polygon fill="grey" stroke="grey" stroke-width="2" points="830.04,-94.96 840,-91.35 829.96,-87.96 830.04,-94.96"/>
</g>
<!-- 8&#45;&gt;26 -->
<g id="edge92" class="edge">
<title>8&#45;&gt;26</title>
<path fill="none" stroke="grey" stroke-width="2" d="M563.19,-1094.18C422.93,-1085.76 76,-1054.85 76,-955 76,-955 76,-955 76,-521 76,-318.71 284.38,-375.03 467,-288 508.89,-268.04 526.45,-277.83 565,-252 583.03,-239.92 578.64,-225.81 598,-216 674.06,-177.48 930.07,-166.78 1036.73,-163.96"/>
<polygon fill="grey" stroke="grey" stroke-width="2" points="1036.64,-167.46 1046.55,-163.71 1036.46,-160.46 1036.64,-167.46"/>
</g>
<!-- 9 -->
<g id="node10" class="node">
<title>9</title>
<path fill="none" stroke="#d88d56" stroke-width="2" d="M1162,-756C1162,-756 1022,-756 1022,-756 1016,-756 1010,-750 1010,-744 1010,-744 1010,-732 1010,-732 1010,-726 1016,-720 1022,-720 1022,-720 1162,-720 1162,-720 1168,-720 1174,-726 1174,-732 1174,-732 1174,-744 1174,-744 1174,-750 1168,-756 1162,-756"/>
<text text-anchor="middle" x="1092" y="-735.5" font-family="sans" font-size="10.00">check_adequate_variant_counts</text>
</g>
<!-- 9&#45;&gt;0 -->
<g id="edge5" class="edge">
<title>9&#45;&gt;0</title>
<path fill="none" stroke="grey" stroke-width="2" d="M1117.73,-719.2C1239.77,-633.8 1750.08,-265.27 1647,-144 1552.21,-32.48 1066.68,-20.22 921.84,-19.06"/>
<polygon fill="grey" stroke="grey" stroke-width="2" points="921.96,-15.56 911.94,-19 921.91,-22.56 921.96,-15.56"/>
</g>
<!-- 9&#45;&gt;14 -->
<g id="edge32" class="edge">
<title>9&#45;&gt;14</title>
<path fill="none" stroke="grey" stroke-width="2" d="M1054.02,-719.15C1034.84,-710.15 1011.39,-699.13 990.98,-689.54"/>
<polygon fill="grey" stroke="grey" stroke-width="2" points="992.65,-686.46 982.11,-685.38 989.68,-692.8 992.65,-686.46"/>
</g>
<!-- 9&#45;&gt;16 -->
<g id="edge39" class="edge">
<title>9&#45;&gt;16</title>
<path fill="none" stroke="grey" stroke-width="2" d="M1020.61,-719.09C986.94,-710.28 945.99,-699.04 902.61,-685.37"/>
<polygon fill="grey" stroke="grey" stroke-width="2" points="903.79,-682.07 893.2,-682.36 901.66,-688.74 903.79,-682.07"/>
</g>
<!-- 10&#45;&gt;9 -->
<g id="edge17" class="edge">
<title>10&#45;&gt;9</title>
<path fill="none" stroke="grey" stroke-width="2" d="M1134.62,-791.34C1128.59,-783.93 1121.43,-775.14 1114.72,-766.9"/>
<polygon fill="grey" stroke="grey" stroke-width="2" points="1117.52,-764.79 1108.49,-759.25 1112.09,-769.21 1117.52,-764.79"/>
</g>
<!-- 10&#45;&gt;17 -->
<g id="edge54" class="edge">
<title>10&#45;&gt;17</title>
<path fill="none" stroke="grey" stroke-width="2" d="M1181.03,-791.2C1194.88,-782.17 1210.33,-770.11 1221,-756 1241.61,-728.74 1237.21,-716.43 1248,-684 1314.14,-485.28 1379.73,-410.87 1303,-216 1289,-180.44 1288.25,-164.51 1256,-144 1203.11,-110.36 1020.98,-97.43 931.47,-93.02"/>
<polygon fill="grey" stroke="grey" stroke-width="2" points="931.88,-89.54 921.73,-92.56 931.55,-96.53 931.88,-89.54"/>
</g>
<!-- 10&#45;&gt;22 -->
<g id="edge74" class="edge">
<title>10&#45;&gt;22</title>
<path fill="none" stroke="grey" stroke-width="2" d="M1164.11,-791.16C1171.35,-781.44 1179.25,-768.8 1183,-756 1187.5,-740.65 1186.75,-735.55 1183,-720 1145.05,-562.71 1054.95,-553.29 1017,-396 1012.39,-376.89 1013.59,-354.83 1015.96,-337.45"/>
<polygon fill="grey" stroke="grey" stroke-width="2" points="1019.4,-338.08 1017.55,-327.65 1012.49,-336.97 1019.4,-338.08"/>
</g>
<!-- 10&#45;&gt;26 -->
<g id="edge91" class="edge">
<title>10&#45;&gt;26</title>
<path fill="none" stroke="grey" stroke-width="2" d="M1169.53,-791.11C1179.38,-781.56 1190.61,-769.09 1198,-756 1255.34,-654.47 1234.96,-614.89 1271,-504 1291.5,-440.94 1336.79,-420.65 1310,-360 1307.6,-354.57 1156.54,-219.83 1152,-216 1141.16,-206.86 1129.03,-197.23 1118.05,-188.72"/>
<polygon fill="grey" stroke="grey" stroke-width="2" points="1120.42,-186.12 1110.36,-182.8 1116.15,-191.67 1120.42,-186.12"/>
</g>
<!-- 11&#45;&gt;0 -->
<g id="edge4" class="edge">
<title>11&#45;&gt;0</title>
<path fill="none" stroke="grey" stroke-width="2" d="M480.87,-432.74C380.1,-401.29 189.02,-325.47 247,-216 304.77,-106.93 709.62,-42.47 840.38,-24.32"/>
<polygon fill="grey" stroke="grey" stroke-width="2" points="840.77,-27.8 850.2,-22.98 839.82,-20.87 840.77,-27.8"/>
</g>
<!-- 11&#45;&gt;17 -->
<g id="edge42" class="edge">
<title>11&#45;&gt;17</title>
<path fill="none" stroke="grey" stroke-width="2" d="M499.85,-431.07C485.76,-422.54 471.3,-410.89 463,-396 407.31,-296.12 415.19,-199.82 515,-144 568.05,-114.33 742.81,-99.56 830.25,-93.88"/>
<polygon fill="grey" stroke="grey" stroke-width="2" points="830.47,-97.37 840.23,-93.25 830.03,-90.38 830.47,-97.37"/>
</g>
<!-- 20 -->
<g id="node21" class="node">
<title>20</title>
<path fill="none" stroke="#97d856" stroke-width="2" d="M573,-396C573,-396 493,-396 493,-396 487,-396 481,-390 481,-384 481,-384 481,-372 481,-372 481,-366 487,-360 493,-360 493,-360 573,-360 573,-360 579,-360 585,-366 585,-372 585,-372 585,-384 585,-384 585,-390 579,-396 573,-396"/>
<text text-anchor="middle" x="533" y="-375.5" font-family="sans" font-size="10.00">affinity_correlation</text>
</g>
<!-- 11&#45;&gt;20 -->
<g id="edge64" class="edge">
<title>11&#45;&gt;20</title>
<path fill="none" stroke="grey" stroke-width="2" d="M537.49,-431.34C536.92,-424.75 536.26,-417.08 535.63,-409.67"/>
<polygon fill="grey" stroke="grey" stroke-width="2" points="539.13,-409.58 534.79,-399.92 532.16,-410.18 539.13,-409.58"/>
</g>
<!-- 11&#45;&gt;22 -->
<g id="edge72" class="edge">
<title>11&#45;&gt;22</title>
<path fill="none" stroke="grey" stroke-width="2" d="M584.09,-431.12C633.75,-411.87 716.22,-381.15 789,-360 851.08,-341.96 923.93,-326.24 971.43,-316.7"/>
<polygon fill="grey" stroke="grey" stroke-width="2" points="972.02,-320.15 981.15,-314.77 970.66,-313.29 972.02,-320.15"/>
</g>
<!-- 25 -->
<g id="node26" class="node">
<title>25</title>
<path fill="none" stroke="#d6d856" stroke-width="2" d="M791.5,-252C791.5,-252 662.5,-252 662.5,-252 656.5,-252 650.5,-246 650.5,-240 650.5,-240 650.5,-228 650.5,-228 650.5,-222 656.5,-216 662.5,-216 662.5,-216 791.5,-216 791.5,-216 797.5,-216 803.5,-222 803.5,-228 803.5,-228 803.5,-240 803.5,-240 803.5,-246 797.5,-252 791.5,-252"/>
<text text-anchor="middle" x="727" y="-231.5" font-family="sans" font-size="10.00">format_antibody_escape_plot</text>
</g>
<!-- 11&#45;&gt;25 -->
<g id="edge78" class="edge">
<title>11&#45;&gt;25</title>
<path fill="none" stroke="grey" stroke-width="2" d="M505.06,-431.04C492.23,-422.32 479.04,-410.55 472,-396 465.03,-381.6 463.53,-373.58 472,-360 508.04,-302.19 579.46,-270.37 637.57,-253.33"/>
<polygon fill="grey" stroke="grey" stroke-width="2" points="638.16,-256.8 646.84,-250.73 636.26,-250.06 638.16,-256.8"/>
</g>
<!-- 11&#45;&gt;26 -->
<g id="edge79" class="edge">
<title>11&#45;&gt;26</title>
<path fill="none" stroke="grey" stroke-width="2" d="M557.12,-431.14C580.46,-408.4 620.01,-370.76 637,-360 672.35,-337.6 686.49,-342.55 724,-324 781.13,-295.75 795.23,-287.72 848,-252 869.5,-237.45 870.83,-227.71 894,-216 939.86,-192.82 997.23,-178.61 1036.86,-170.81"/>
<polygon fill="grey" stroke="grey" stroke-width="2" points="1037.43,-174.26 1046.61,-168.97 1036.13,-167.39 1037.43,-174.26"/>
</g>
<!-- 12 -->
<g id="node13" class="node">
<title>12</title>
<path fill="none" stroke="#afd856" stroke-width="2" d="M447.5,-540C447.5,-540 382.5,-540 382.5,-540 376.5,-540 370.5,-534 370.5,-528 370.5,-528 370.5,-516 370.5,-516 370.5,-510 376.5,-504 382.5,-504 382.5,-504 447.5,-504 447.5,-504 453.5,-504 459.5,-510 459.5,-516 459.5,-516 459.5,-528 459.5,-528 459.5,-534 453.5,-540 447.5,-540"/>
<text text-anchor="middle" x="415" y="-519.5" font-family="sans" font-size="10.00">avg_muteffects</text>
</g>
<!-- 12&#45;&gt;0 -->
<g id="edge2" class="edge">
<title>12&#45;&gt;0</title>
<path fill="none" stroke="grey" stroke-width="2" d="M369.73,-503.45C349.95,-494.54 327.17,-482.51 309,-468 276.67,-442.18 270.43,-431.97 250,-396 194.5,-298.27 187.03,-218.7 271,-144 330.78,-90.82 358.78,-92.96 436,-72 581.33,-32.56 761.28,-22.46 840.42,-19.88"/>
<polygon fill="grey" stroke="grey" stroke-width="2" points="840.2,-23.39 850.1,-19.6 840,-16.39 840.2,-23.39"/>
</g>
<!-- 12&#45;&gt;11 -->
<g id="edge25" class="edge">
<title>12&#45;&gt;11</title>
<path fill="none" stroke="grey" stroke-width="2" d="M446.61,-503.15C461.77,-494.6 480.15,-484.22 496.51,-474.99"/>
<polygon fill="grey" stroke="grey" stroke-width="2" points="497.82,-478.26 504.81,-470.3 494.38,-472.17 497.82,-478.26"/>
</g>
<!-- 12&#45;&gt;17 -->
<g id="edge47" class="edge">
<title>12&#45;&gt;17</title>
<path fill="none" stroke="grey" stroke-width="2" d="M383.25,-503.24C369.18,-494.14 353.31,-482.02 342,-468 266.87,-374.82 190.98,-321.77 247,-216 273.66,-165.67 299.47,-163.44 353,-144 440.04,-112.39 716,-97.74 830.48,-92.91"/>
<polygon fill="grey" stroke="grey" stroke-width="2" points="830.42,-96.41 840.27,-92.51 830.13,-89.42 830.42,-96.41"/>
</g>
<!-- 12&#45;&gt;20 -->
<g id="edge63" class="edge">
<title>12&#45;&gt;20</title>
<path fill="none" stroke="grey" stroke-width="2" d="M424.36,-503.26C434.69,-484.52 452.45,-454.63 472,-432 480.15,-422.57 489.99,-413.3 499.37,-405.21"/>
<polygon fill="grey" stroke="grey" stroke-width="2" points="501.5,-407.99 506.94,-398.9 497.02,-402.62 501.5,-407.99"/>
</g>
<!-- 12&#45;&gt;22 -->
<g id="edge67" class="edge">
<title>12&#45;&gt;22</title>
<path fill="none" stroke="grey" stroke-width="2" d="M460.17,-510.55C499.07,-501.04 556.45,-485.8 605,-468 712.92,-428.43 732,-399.36 840,-360 896.73,-339.32 913.23,-341.55 971,-324 971.27,-323.92 971.54,-323.84 971.81,-323.75"/>
<polygon fill="grey" stroke="grey" stroke-width="2" points="972.82,-327.1 981.31,-320.76 970.72,-320.43 972.82,-327.1"/>
</g>
<!-- 23 -->
<g id="node24" class="node">
<title>23</title>
<path fill="none" stroke="#56d873" stroke-width="2" d="M371.5,-252C371.5,-252 268.5,-252 268.5,-252 262.5,-252 256.5,-246 256.5,-240 256.5,-240 256.5,-228 256.5,-228 256.5,-222 262.5,-216 268.5,-216 268.5,-216 371.5,-216 371.5,-216 377.5,-216 383.5,-222 383.5,-228 383.5,-228 383.5,-240 383.5,-240 383.5,-246 377.5,-252 371.5,-252"/>
<text text-anchor="middle" x="320" y="-231.5" font-family="sans" font-size="10.00">format_muteffects_plot</text>
</g>
<!-- 12&#45;&gt;23 -->
<g id="edge77" class="edge">
<title>12&#45;&gt;23</title>
<path fill="none" stroke="grey" stroke-width="2" d="M397.79,-503.36C376.91,-480.67 342.69,-439.04 328,-396 313.21,-352.66 314.06,-298.95 316.6,-265.83"/>
<polygon fill="grey" stroke="grey" stroke-width="2" points="320.07,-266.28 317.48,-256 313.1,-265.65 320.07,-266.28"/>
</g>
<!-- 12&#45;&gt;26 -->
<g id="edge84" class="edge">
<title>12&#45;&gt;26</title>
<path fill="none" stroke="grey" stroke-width="2" d="M415.95,-503.27C419.29,-459.6 434.2,-346.19 500,-288 534.76,-257.26 557.84,-275.24 598,-252 619.57,-239.52 618.12,-225.89 641,-216 711.35,-185.59 937.68,-170.52 1036.78,-165.25"/>
<polygon fill="grey" stroke="grey" stroke-width="2" points="1036.78,-168.76 1046.59,-164.74 1036.42,-161.76 1036.78,-168.76"/>
</g>
<!-- 13&#45;&gt;12 -->
<g id="edge26" class="edge">
<title>13&#45;&gt;12</title>
<path fill="none" stroke="grey" stroke-width="2" d="M526.76,-575.15C508.06,-566.43 485.3,-555.81 465.21,-546.43"/>
<polygon fill="grey" stroke="grey" stroke-width="2" points="466.72,-543.27 456.17,-542.21 463.75,-549.61 466.72,-543.27"/>
</g>
<!-- 13&#45;&gt;17 -->
<g id="edge46" class="edge">
<title>13&#45;&gt;17</title>
<path fill="none" stroke="grey" stroke-width="2" d="M515.04,-592.23C431.63,-588.1 264.46,-567.08 176,-468 79.44,-359.85 39.19,-250.11 138,-144 185.09,-93.43 671.49,-90.36 830.8,-90.72"/>
<polygon fill="grey" stroke="grey" stroke-width="2" points="830.4,-94.22 840.41,-90.75 830.42,-87.22 830.4,-94.22"/>
</g>
<!-- 13&#45;&gt;22 -->
<g id="edge76" class="edge">
<title>13&#45;&gt;22</title>
<path fill="none" stroke="grey" stroke-width="2" d="M614.61,-587.74C657.98,-581.44 721.43,-567.99 770,-540 808.94,-517.56 813.81,-503.78 841,-468 874.49,-423.93 861.92,-397.09 903,-360 913.97,-350.1 944.74,-336.5 972.24,-325.55"/>
<polygon fill="grey" stroke="grey" stroke-width="2" points="973.31,-328.9 981.35,-321.99 970.76,-322.38 973.31,-328.9"/>
</g>
<!-- 13&#45;&gt;26 -->
<g id="edge83" class="edge">
<title>13&#45;&gt;26</title>
<path fill="none" stroke="grey" stroke-width="2" d="M576.44,-575.18C603.71,-533.69 676.24,-428.9 756,-360 846.38,-281.92 971.61,-216.34 1038.15,-184.21"/>
<polygon fill="grey" stroke="grey" stroke-width="2" points="1039.63,-187.39 1047.14,-179.92 1036.61,-181.07 1039.63,-187.39"/>
</g>
<!-- 14&#45;&gt;13 -->
<g id="edge27" class="edge">
<title>14&#45;&gt;13</title>
<path fill="none" stroke="grey" stroke-width="2" d="M906.86,-650.62C903.88,-649.66 900.91,-648.77 898,-648 805.44,-623.42 695.19,-608.61 627.66,-601.13"/>
<polygon fill="grey" stroke="grey" stroke-width="2" points="628.07,-597.65 617.75,-600.05 627.32,-604.61 628.07,-597.65"/>
</g>
<!-- 18 -->
<g id="node19" class="node">
<title>18</title>
<path fill="none" stroke="#56d8d0" stroke-width="2" d="M1289,-396C1289,-396 1203,-396 1203,-396 1197,-396 1191,-390 1191,-384 1191,-384 1191,-372 1191,-372 1191,-366 1197,-360 1203,-360 1203,-360 1289,-360 1289,-360 1295,-360 1301,-366 1301,-372 1301,-372 1301,-384 1301,-384 1301,-390 1295,-396 1289,-396"/>
<text text-anchor="middle" x="1246" y="-375.5" font-family="sans" font-size="10.00">analyze_func_scores</text>
</g>
<!-- 14&#45;&gt;18 -->
<g id="edge61" class="edge">
<title>14&#45;&gt;18</title>
<path fill="none" stroke="grey" stroke-width="2" d="M961.95,-647.11C1013.5,-598.46 1156.45,-463.53 1217.63,-405.78"/>
<polygon fill="grey" stroke="grey" stroke-width="2" points="1219.98,-408.37 1224.85,-398.96 1215.18,-403.28 1219.98,-408.37"/>
</g>
<!-- 15&#45;&gt;11 -->
<g id="edge23" class="edge">
<title>15&#45;&gt;11</title>
<path fill="none" stroke="grey" stroke-width="2" d="M683.53,-505.98C658.69,-496.53 626.18,-484.16 598.28,-473.55"/>
<polygon fill="grey" stroke="grey" stroke-width="2" points="599.65,-470.33 589.06,-470.05 597.16,-476.87 599.65,-470.33"/>
</g>
<!-- 15&#45;&gt;17 -->
<g id="edge50" class="edge">
<title>15&#45;&gt;17</title>
<path fill="none" stroke="grey" stroke-width="2" d="M727.21,-503.1C731.6,-485 738.97,-456.31 747,-432 785.74,-314.67 842.84,-179.07 868.13,-120.47"/>
<polygon fill="grey" stroke="grey" stroke-width="2" points="871.2,-122.2 871.96,-111.63 864.78,-119.42 871.2,-122.2"/>
</g>
<!-- 15&#45;&gt;22 -->
<g id="edge69" class="edge">
<title>15&#45;&gt;22</title>
<path fill="none" stroke="grey" stroke-width="2" d="M762.06,-505.88C780.64,-497.11 802,-484.5 817,-468 852.33,-429.13 826.18,-395.38 865,-360 865.53,-359.52 926.26,-339.09 972.02,-323.74"/>
<polygon fill="grey" stroke="grey" stroke-width="2" points="972.93,-327.13 981.3,-320.63 970.71,-320.49 972.93,-327.13"/>
</g>
<!-- 15&#45;&gt;26 -->
<g id="edge87" class="edge">
<title>15&#45;&gt;26</title>
<path fill="none" stroke="grey" stroke-width="2" d="M731.55,-503.17C748.1,-470.42 787.56,-400.35 840,-360 875.13,-332.97 896.25,-348.78 933,-324 961.93,-304.48 1026.14,-231.24 1060.77,-190.6"/>
<polygon fill="grey" stroke="grey" stroke-width="2" points="1063.34,-192.98 1067.14,-183.09 1058,-188.45 1063.34,-192.98"/>
</g>
<!-- 16&#45;&gt;15 -->
<g id="edge35" class="edge">
<title>16&#45;&gt;15</title>
<path fill="none" stroke="grey" stroke-width="2" d="M835.66,-647.02C813.47,-622.58 773.59,-578.69 747.72,-550.21"/>
<polygon fill="grey" stroke="grey" stroke-width="2" points="750.56,-548.13 741.24,-543.08 745.37,-552.83 750.56,-548.13"/>
</g>
<!-- 19 -->
<g id="node20" class="node">
<title>19</title>
<path fill="none" stroke="#d8cb56" stroke-width="2" d="M1161,-396C1161,-396 1071,-396 1071,-396 1065,-396 1059,-390 1059,-384 1059,-384 1059,-372 1059,-372 1059,-366 1065,-360 1071,-360 1071,-360 1161,-360 1161,-360 1167,-360 1173,-366 1173,-372 1173,-372 1173,-384 1173,-384 1173,-390 1167,-396 1161,-396"/>
<text text-anchor="middle" x="1116" y="-375.5" font-family="sans" font-size="10.00">analyze_prob_escape</text>
</g>
<!-- 16&#45;&gt;19 -->
<g id="edge62" class="edge">
<title>16&#45;&gt;19</title>
<path fill="none" stroke="grey" stroke-width="2" d="M866.23,-647.01C898.29,-606.89 979.26,-507.63 1055,-432 1064.14,-422.88 1074.59,-413.46 1084.23,-405.15"/>
<polygon fill="grey" stroke="grey" stroke-width="2" points="1086.23,-408.04 1091.58,-398.9 1081.7,-402.71 1086.23,-408.04"/>
</g>
<!-- 17&#45;&gt;0 -->
<g id="edge1" class="edge">
<title>17&#45;&gt;0</title>
<path fill="none" stroke="grey" stroke-width="2" d="M881,-71.34C881,-64.75 881,-57.08 881,-49.67"/>
<polygon fill="grey" stroke="grey" stroke-width="2" points="884.5,-49.93 881,-39.93 877.5,-49.93 884.5,-49.93"/>
</g>
<!-- 18&#45;&gt;17 -->
<g id="edge56" class="edge">
<title>18&#45;&gt;17</title>
<path fill="none" stroke="grey" stroke-width="2" d="M1257.49,-359.12C1275.38,-328.89 1305.9,-266.05 1286,-216 1269.74,-175.1 1256.94,-164.52 1218,-144 1169.24,-118.3 1013.22,-101.95 931.7,-94.95"/>
<polygon fill="grey" stroke="grey" stroke-width="2" points="932.08,-91.47 921.83,-94.12 931.5,-98.44 932.08,-91.47"/>
</g>
<!-- 18&#45;&gt;22 -->
<g id="edge66" class="edge">
<title>18&#45;&gt;22</title>
<path fill="none" stroke="grey" stroke-width="2" d="M1190.05,-359.52C1153.81,-348.19 1107.03,-333.57 1072.02,-322.63"/>
<polygon fill="grey" stroke="grey" stroke-width="2" points="1073.18,-319.33 1062.59,-319.69 1071.09,-326.01 1073.18,-319.33"/>
</g>
<!-- 18&#45;&gt;26 -->
<g id="edge93" class="edge">
<title>18&#45;&gt;26</title>
<path fill="none" stroke="grey" stroke-width="2" d="M1232.47,-359.12C1204.3,-321.91 1139.17,-235.87 1105.31,-191.15"/>
<polygon fill="grey" stroke="grey" stroke-width="2" points="1108.26,-189.25 1099.44,-183.39 1102.68,-193.48 1108.26,-189.25"/>
</g>
<!-- 19&#45;&gt;17 -->
<g id="edge44" class="edge">
<title>19&#45;&gt;17</title>
<path fill="none" stroke="grey" stroke-width="2" d="M1156.89,-359.15C1212.32,-332.19 1300.93,-277.63 1269,-216 1243.47,-166.73 1218.13,-165.56 1167,-144 1088.86,-111.06 990.18,-98.53 931.52,-93.81"/>
<polygon fill="grey" stroke="grey" stroke-width="2" points="931.82,-90.32 921.59,-93.06 931.3,-97.3 931.82,-90.32"/>
</g>
<!-- 19&#45;&gt;22 -->
<g id="edge71" class="edge">
<title>19&#45;&gt;22</title>
<path fill="none" stroke="grey" stroke-width="2" d="M1092.28,-359.34C1081.34,-351.19 1068.16,-341.37 1056.17,-332.45"/>
<polygon fill="grey" stroke="grey" stroke-width="2" points="1058.58,-329.88 1048.47,-326.71 1054.4,-335.49 1058.58,-329.88"/>
</g>
<!-- 19&#45;&gt;26 -->
<g id="edge81" class="edge">
<title>19&#45;&gt;26</title>
<path fill="none" stroke="grey" stroke-width="2" d="M1113.33,-359.12C1107.87,-322.62 1095.38,-239.13 1088.6,-193.74"/>
<polygon fill="grey" stroke="grey" stroke-width="2" points="1092.08,-193.34 1087.14,-183.97 1085.15,-194.38 1092.08,-193.34"/>
</g>
<!-- 20&#45;&gt;17 -->
<g id="edge48" class="edge">
<title>20&#45;&gt;17</title>
<path fill="none" stroke="grey" stroke-width="2" d="M515.57,-359.34C487.13,-328.35 437,-262.98 469,-216 510.23,-155.47 729.73,-114.37 830.44,-98.42"/>
<polygon fill="grey" stroke="grey" stroke-width="2" points="830.92,-101.88 840.26,-96.89 829.84,-94.97 830.92,-101.88"/>
</g>
<!-- 20&#45;&gt;22 -->
<g id="edge68" class="edge">
<title>20&#45;&gt;22</title>
<path fill="none" stroke="grey" stroke-width="2" d="M585.8,-369.44C680.64,-355.87 878.6,-327.53 971.64,-314.21"/>
<polygon fill="grey" stroke="grey" stroke-width="2" points="971.92,-317.7 981.32,-312.82 970.93,-310.78 971.92,-317.7"/>
</g>
<!-- 20&#45;&gt;26 -->
<g id="edge85" class="edge">
<title>20&#45;&gt;26</title>
<path fill="none" stroke="grey" stroke-width="2" d="M583.38,-359.07C640.84,-337.59 736.6,-298.59 812,-252 833.49,-238.72 833.33,-227.15 856,-216 914.5,-187.23 989.21,-173.7 1036.85,-167.62"/>
<polygon fill="grey" stroke="grey" stroke-width="2" points="1037.01,-171.12 1046.52,-166.45 1036.18,-164.17 1037.01,-171.12"/>
</g>
<!-- 21 -->
<g id="node22" class="node">
<title>21</title>
<path fill="none" stroke="#56a2d8" stroke-width="2" d="M1248,-252C1248,-252 1214,-252 1214,-252 1208,-252 1202,-246 1202,-240 1202,-240 1202,-228 1202,-228 1202,-222 1208,-216 1214,-216 1214,-216 1248,-216 1248,-216 1254,-216 1260,-222 1260,-228 1260,-228 1260,-240 1260,-240 1260,-246 1254,-252 1248,-252"/>
<text text-anchor="middle" x="1231" y="-231.5" font-family="sans" font-size="10.00">subindex</text>
</g>
<!-- 21&#45;&gt;17 -->
<g id="edge58" class="edge">
<title>21&#45;&gt;17</title>
<path fill="none" stroke="grey" stroke-width="2" d="M1215.6,-215.33C1196.78,-194.91 1162.99,-161.83 1127,-144 1063.98,-112.77 982.94,-99.86 931.46,-94.58"/>
<polygon fill="grey" stroke="grey" stroke-width="2" points="932.02,-91.12 921.74,-93.65 931.36,-98.09 932.02,-91.12"/>
</g>
<!-- 21&#45;&gt;26 -->
<g id="edge95" class="edge">
<title>21&#45;&gt;26</title>
<path fill="none" stroke="grey" stroke-width="2" d="M1201.25,-218.83C1180.82,-209.1 1153.3,-196 1130.05,-184.93"/>
<polygon fill="grey" stroke="grey" stroke-width="2" points="1131.61,-181.79 1121.08,-180.66 1128.6,-188.11 1131.61,-181.79"/>
</g>
<!-- 22&#45;&gt;17 -->
<g id="edge59" class="edge">
<title>22&#45;&gt;17</title>
<path fill="none" stroke="grey" stroke-width="2" d="M1018.79,-287.03C1012.37,-255.26 995.41,-188.36 960,-144 951.33,-133.14 939.83,-123.7 928.29,-115.91"/>
<polygon fill="grey" stroke="grey" stroke-width="2" points="930.19,-112.97 919.87,-110.58 926.45,-118.88 930.19,-112.97"/>
</g>
<!-- 22&#45;&gt;21 -->
<g id="edge65" class="edge">
<title>22&#45;&gt;21</title>
<path fill="none" stroke="grey" stroke-width="2" d="M1059.85,-292.32C1096.31,-280.11 1151.35,-261.68 1189.11,-249.03"/>
<polygon fill="grey" stroke="grey" stroke-width="2" points="1189.96,-252.44 1198.34,-245.94 1187.74,-245.8 1189.96,-252.44"/>
</g>
<!-- 22&#45;&gt;26 -->
<g id="edge96" class="edge">
<title>22&#45;&gt;26</title>
<path fill="none" stroke="grey" stroke-width="2" d="M1029.85,-287.02C1040.24,-263.22 1058.69,-220.97 1071.13,-192.48"/>
<polygon fill="grey" stroke="grey" stroke-width="2" points="1074.21,-194.18 1075,-183.61 1067.79,-191.38 1074.21,-194.18"/>
</g>
<!-- 23&#45;&gt;17 -->
<g id="edge51" class="edge">
<title>23&#45;&gt;17</title>
<path fill="none" stroke="grey" stroke-width="2" d="M330.01,-215.08C342.79,-194.09 367.02,-160.14 398,-144 472.33,-105.28 722.28,-94.74 830.43,-91.96"/>
<polygon fill="grey" stroke="grey" stroke-width="2" points="830.26,-95.46 840.17,-91.72 830.09,-88.46 830.26,-95.46"/>
</g>
<!-- 23&#45;&gt;26 -->
<g id="edge88" class="edge">
<title>23&#45;&gt;26</title>
<path fill="none" stroke="grey" stroke-width="2" d="M384.5,-225.25C410.7,-222.2 441.28,-218.78 469,-216 680.5,-194.83 933.45,-174.65 1036.65,-166.63"/>
<polygon fill="grey" stroke="grey" stroke-width="2" points="1036.91,-170.12 1046.61,-165.86 1036.37,-163.14 1036.91,-170.12"/>
</g>
<!-- 24 -->
<g id="node25" class="node">
<title>24</title>
<path fill="none" stroke="#d8a456" stroke-width="2" d="M544,-252C544,-252 490,-252 490,-252 484,-252 478,-246 478,-240 478,-240 478,-228 478,-228 478,-222 484,-216 490,-216 490,-216 544,-216 544,-216 550,-216 556,-222 556,-228 556,-228 556,-240 556,-240 556,-246 550,-252 544,-252"/>
<text text-anchor="middle" x="517" y="-231.5" font-family="sans" font-size="10.00">make_graphs</text>
</g>
<!-- 24&#45;&gt;17 -->
<g id="edge43" class="edge">
<title>24&#45;&gt;17</title>
<path fill="none" stroke="grey" stroke-width="2" d="M557,-217.4C623.86,-191.31 758.18,-138.91 831.11,-110.46"/>
<polygon fill="grey" stroke="grey" stroke-width="2" points="832.27,-113.77 840.31,-106.87 829.72,-107.25 832.27,-113.77"/>
</g>
<!-- 24&#45;&gt;26 -->
<g id="edge80" class="edge">
<title>24&#45;&gt;26</title>
<path fill="none" stroke="grey" stroke-width="2" d="M556.99,-219.21C561.35,-218 565.74,-216.89 570,-216 739.5,-180.48 945.65,-168.39 1036.79,-164.59"/>
<polygon fill="grey" stroke="grey" stroke-width="2" points="1036.76,-168.1 1046.62,-164.2 1036.48,-161.1 1036.76,-168.1"/>
</g>
<!-- 25&#45;&gt;17 -->
<g id="edge45" class="edge">
<title>25&#45;&gt;17</title>
<path fill="none" stroke="grey" stroke-width="2" d="M746.5,-215.02C773.23,-190.37 821.44,-145.92 852.3,-117.47"/>
<polygon fill="grey" stroke="grey" stroke-width="2" points="854.45,-120.24 859.43,-110.89 849.7,-115.1 854.45,-120.24"/>
</g>
<!-- 25&#45;&gt;26 -->
<g id="edge82" class="edge">
<title>25&#45;&gt;26</title>
<path fill="none" stroke="grey" stroke-width="2" d="M804.46,-217.81C875.39,-203.9 978.04,-183.78 1037.2,-172.18"/>
<polygon fill="grey" stroke="grey" stroke-width="2" points="1037.73,-175.64 1046.87,-170.28 1036.38,-168.77 1037.73,-175.64"/>
</g>
<!-- 26&#45;&gt;17 -->
<g id="edge41" class="edge">
<title>26&#45;&gt;17</title>
<path fill="none" stroke="grey" stroke-width="2" d="M1049.67,-148.79C1045.08,-147.17 1040.43,-145.54 1036,-144 1000.94,-131.8 961.34,-118.26 930.95,-107.92"/>
<polygon fill="grey" stroke="grey" stroke-width="2" points="932.4,-104.72 921.81,-104.82 930.15,-111.35 932.4,-104.72"/>
</g>
</g>
</svg>
