<?xml version="1.0" encoding="UTF-8" standalone="no"?>
<!DOCTYPE svg PUBLIC "-//W3C//DTD SVG 1.1//EN"
 "http://www.w3.org/Graphics/SVG/1.1/DTD/svg11.dtd">
<!-- Generated by graphviz version 7.0.6 (20230107.1202)
 -->
<!-- Title: snakemake_dag Pages: 1 -->
<svg width="1696pt" height="1196pt"
 viewBox="0.00 0.00 1696.00 1196.00" xmlns="http://www.w3.org/2000/svg" xmlns:xlink="http://www.w3.org/1999/xlink">
<g id="graph0" class="graph" transform="scale(1 1) rotate(0) translate(4 1192)">
<title>snakemake_dag</title>
<polygon fill="white" stroke="none" points="-4,4 -4,-1192 1692,-1192 1692,4 -4,4"/>
<!-- 0 -->
<g id="node1" class="node">
<title>0</title>
<path fill="none" stroke="#56d0d8" stroke-width="2" d="M129,-36C129,-36 99,-36 99,-36 93,-36 87,-30 87,-24 87,-24 87,-12 87,-12 87,-6 93,0 99,0 99,0 129,0 129,0 135,0 141,-6 141,-12 141,-12 141,-24 141,-24 141,-30 135,-36 129,-36"/>
<text text-anchor="middle" x="114" y="-15.5" font-family="sans" font-size="10.00">all</text>
</g>
<!-- 1 -->
<g id="node2" class="node">
<title>1</title>
<path fill="none" stroke="#ced856" stroke-width="2" d="M707.5,-828C707.5,-828 642.5,-828 642.5,-828 636.5,-828 630.5,-822 630.5,-816 630.5,-816 630.5,-804 630.5,-804 630.5,-798 636.5,-792 642.5,-792 642.5,-792 707.5,-792 707.5,-792 713.5,-792 719.5,-798 719.5,-804 719.5,-804 719.5,-816 719.5,-816 719.5,-822 713.5,-828 707.5,-828"/>
<text text-anchor="middle" x="675" y="-807.5" font-family="sans" font-size="10.00">variant_counts</text>
</g>
<!-- 1&#45;&gt;0 -->
<g id="edge2" class="edge">
<title>1&#45;&gt;0</title>
<path fill="none" stroke="grey" stroke-width="2" d="M629.51,-797.39C599.03,-788.54 558.65,-774.67 526,-756 327.92,-642.75 262.04,-600.08 160,-396 101.83,-279.66 109.81,-238.06 108,-108 107.78,-92 107.1,-87.97 108,-72 108.41,-64.7 109.14,-56.85 109.95,-49.5"/>
<polygon fill="grey" stroke="grey" stroke-width="2" points="113.42,-49.98 111.14,-39.63 106.47,-49.14 113.42,-49.98"/>
</g>
<!-- 10 -->
<g id="node11" class="node">
<title>10</title>
<path fill="none" stroke="#d89556" stroke-width="2" d="M1001,-756C1001,-756 893,-756 893,-756 887,-756 881,-750 881,-744 881,-744 881,-732 881,-732 881,-726 887,-720 893,-720 893,-720 1001,-720 1001,-720 1007,-720 1013,-726 1013,-732 1013,-732 1013,-744 1013,-744 1013,-750 1007,-756 1001,-756"/>
<text text-anchor="middle" x="947" y="-735.5" font-family="sans" font-size="10.00">analyze_variant_counts</text>
</g>
<!-- 1&#45;&gt;10 -->
<g id="edge19" class="edge">
<title>1&#45;&gt;10</title>
<path fill="none" stroke="grey" stroke-width="2" d="M720.22,-797.36C760.23,-787.07 819.52,-771.81 867.45,-759.47"/>
<polygon fill="grey" stroke="grey" stroke-width="2" points="868.26,-762.88 877.07,-757 866.51,-756.1 868.26,-762.88"/>
</g>
<!-- 14 -->
<g id="node15" class="node">
<title>14</title>
<path fill="none" stroke="#5692d8" stroke-width="2" d="M482,-612C482,-612 432,-612 432,-612 426,-612 420,-606 420,-600 420,-600 420,-588 420,-588 420,-582 426,-576 432,-576 432,-576 482,-576 482,-576 488,-576 494,-582 494,-588 494,-588 494,-600 494,-600 494,-606 488,-612 482,-612"/>
<text text-anchor="middle" x="457" y="-591.5" font-family="sans" font-size="10.00">func_scores</text>
</g>
<!-- 1&#45;&gt;14 -->
<g id="edge31" class="edge">
<title>1&#45;&gt;14</title>
<path fill="none" stroke="grey" stroke-width="2" d="M665.99,-791.18C649.01,-759.05 609.5,-690.8 560,-648 544.35,-634.47 524.65,-623.26 506.67,-614.68"/>
<polygon fill="grey" stroke="grey" stroke-width="2" points="508.18,-611.52 497.63,-610.56 505.28,-617.89 508.18,-611.52"/>
</g>
<!-- 16 -->
<g id="node17" class="node">
<title>16</title>
<path fill="none" stroke="#56d8d0" stroke-width="2" d="M1084,-612C1084,-612 1030,-612 1030,-612 1024,-612 1018,-606 1018,-600 1018,-600 1018,-588 1018,-588 1018,-582 1024,-576 1030,-576 1030,-576 1084,-576 1084,-576 1090,-576 1096,-582 1096,-588 1096,-588 1096,-600 1096,-600 1096,-606 1090,-612 1084,-612"/>
<text text-anchor="middle" x="1057" y="-591.5" font-family="sans" font-size="10.00">prob_escape</text>
</g>
<!-- 1&#45;&gt;16 -->
<g id="edge38" class="edge">
<title>1&#45;&gt;16</title>
<path fill="none" stroke="grey" stroke-width="2" d="M714.18,-791.18C763.91,-768.15 851.9,-726 924,-684 958.24,-664.05 995.61,-638.71 1021.99,-620.17"/>
<polygon fill="grey" stroke="grey" stroke-width="2" points="1023.97,-623.06 1030.12,-614.43 1019.93,-617.34 1023.97,-623.06"/>
</g>
<!-- 17 -->
<g id="node18" class="node">
<title>17</title>
<path fill="none" stroke="#59d856" stroke-width="2" d="M939,-108C939,-108 885,-108 885,-108 879,-108 873,-102 873,-96 873,-96 873,-84 873,-84 873,-78 879,-72 885,-72 885,-72 939,-72 939,-72 945,-72 951,-78 951,-84 951,-84 951,-96 951,-96 951,-102 945,-108 939,-108"/>
<text text-anchor="middle" x="912" y="-87.5" font-family="sans" font-size="10.00">sphinx_build</text>
</g>
<!-- 1&#45;&gt;17 -->
<g id="edge47" class="edge">
<title>1&#45;&gt;17</title>
<path fill="none" stroke="grey" stroke-width="2" d="M641.21,-791.12C586.52,-760.74 478,-694.25 411,-612 293.92,-468.27 246.92,-398.41 280,-216 286.1,-182.37 279.79,-164.67 307,-144 350.51,-110.94 720.31,-96.67 859.4,-92.43"/>
<polygon fill="grey" stroke="grey" stroke-width="2" points="859.2,-95.94 869.09,-92.15 858.99,-88.95 859.2,-95.94"/>
</g>
<!-- 25 -->
<g id="node26" class="node">
<title>25</title>
<path fill="none" stroke="#d8cb56" stroke-width="2" d="M857.5,-180C857.5,-180 810.5,-180 810.5,-180 804.5,-180 798.5,-174 798.5,-168 798.5,-168 798.5,-156 798.5,-156 798.5,-150 804.5,-144 810.5,-144 810.5,-144 857.5,-144 857.5,-144 863.5,-144 869.5,-150 869.5,-156 869.5,-156 869.5,-168 869.5,-168 869.5,-174 863.5,-180 857.5,-180"/>
<text text-anchor="middle" x="834" y="-159.5" font-family="sans" font-size="10.00">docs_index</text>
</g>
<!-- 1&#45;&gt;25 -->
<g id="edge80" class="edge">
<title>1&#45;&gt;25</title>
<path fill="none" stroke="grey" stroke-width="2" d="M677.36,-791.26C686.62,-720.96 720,-461.75 720,-379 720,-379 720,-379 720,-305 720,-264.03 719.17,-248.59 744,-216 750.14,-207.94 768.08,-196.81 786.35,-186.83"/>
<polygon fill="grey" stroke="grey" stroke-width="2" points="787.81,-190.02 794.99,-182.23 784.52,-183.84 787.81,-190.02"/>
</g>
<!-- 2 -->
<g id="node3" class="node">
<title>2</title>
<path fill="none" stroke="#68d856" stroke-width="2" d="M812.5,-900C812.5,-900 743.5,-900 743.5,-900 737.5,-900 731.5,-894 731.5,-888 731.5,-888 731.5,-876 731.5,-876 731.5,-870 737.5,-864 743.5,-864 743.5,-864 812.5,-864 812.5,-864 818.5,-864 824.5,-870 824.5,-876 824.5,-876 824.5,-888 824.5,-888 824.5,-894 818.5,-900 812.5,-900"/>
<text text-anchor="middle" x="778" y="-879.5" font-family="sans" font-size="10.00">count_barcodes</text>
</g>
<!-- 2&#45;&gt;1 -->
<g id="edge7" class="edge">
<title>2&#45;&gt;1</title>
<path fill="none" stroke="grey" stroke-width="2" d="M751.74,-863.15C739.64,-854.93 725.06,-845.02 711.87,-836.06"/>
<polygon fill="grey" stroke="grey" stroke-width="2" points="713.95,-833.24 703.71,-830.51 710.02,-839.03 713.95,-833.24"/>
</g>
<!-- 2&#45;&gt;10 -->
<g id="edge20" class="edge">
<title>2&#45;&gt;10</title>
<path fill="none" stroke="grey" stroke-width="2" d="M799.4,-863.02C828.86,-838.26 882.1,-793.53 915.94,-765.1"/>
<polygon fill="grey" stroke="grey" stroke-width="2" points="918.05,-767.9 923.45,-758.79 913.54,-762.54 918.05,-767.9"/>
</g>
<!-- 3 -->
<g id="node4" class="node">
<title>3</title>
<path fill="none" stroke="#56d8b9" stroke-width="2" d="M919,-972C919,-972 823,-972 823,-972 817,-972 811,-966 811,-960 811,-960 811,-948 811,-948 811,-942 817,-936 823,-936 823,-936 919,-936 919,-936 925,-936 931,-942 931,-948 931,-948 931,-960 931,-960 931,-966 925,-972 919,-972"/>
<text text-anchor="middle" x="871" y="-951.5" font-family="sans" font-size="10.00">build_codon_variants</text>
</g>
<!-- 3&#45;&gt;1 -->
<g id="edge6" class="edge">
<title>3&#45;&gt;1</title>
<path fill="none" stroke="grey" stroke-width="2" d="M810,-941.8C781.06,-934 747.53,-921.08 723,-900 704.85,-884.4 692.42,-860.17 684.76,-840.93"/>
<polygon fill="grey" stroke="grey" stroke-width="2" points="688.1,-839.87 681.36,-831.7 681.53,-842.3 688.1,-839.87"/>
</g>
<!-- 3&#45;&gt;2 -->
<g id="edge9" class="edge">
<title>3&#45;&gt;2</title>
<path fill="none" stroke="grey" stroke-width="2" d="M847.53,-935.34C836.82,-927.27 823.93,-917.57 812.17,-908.72"/>
<polygon fill="grey" stroke="grey" stroke-width="2" points="814.3,-905.94 804.2,-902.72 810.09,-911.53 814.3,-905.94"/>
</g>
<!-- 3&#45;&gt;10 -->
<g id="edge18" class="edge">
<title>3&#45;&gt;10</title>
<path fill="none" stroke="grey" stroke-width="2" d="M877.35,-935.12C890.37,-898.46 920.22,-814.41 936.29,-769.16"/>
<polygon fill="grey" stroke="grey" stroke-width="2" points="939.55,-770.42 939.6,-759.83 932.96,-768.08 939.55,-770.42"/>
</g>
<!-- 3&#45;&gt;14 -->
<g id="edge29" class="edge">
<title>3&#45;&gt;14</title>
<path fill="none" stroke="grey" stroke-width="2" d="M810.22,-943.05C774,-935.22 728.2,-921.88 692,-900 578.8,-831.58 500.2,-686.72 470.34,-624.45"/>
<polygon fill="grey" stroke="grey" stroke-width="2" points="473.58,-623.11 466.15,-615.55 467.24,-626.09 473.58,-623.11"/>
</g>
<!-- 3&#45;&gt;16 -->
<g id="edge36" class="edge">
<title>3&#45;&gt;16</title>
<path fill="none" stroke="grey" stroke-width="2" d="M885.04,-935.31C892.79,-925.23 902.35,-912.2 910,-900 938.83,-854.02 930.47,-832.14 967,-792 986.67,-770.39 1005.44,-780.07 1022,-756 1049,-716.75 1055.69,-660.43 1057.06,-625.86"/>
<polygon fill="grey" stroke="grey" stroke-width="2" points="1060.55,-626.01 1057.29,-615.93 1053.56,-625.85 1060.55,-626.01"/>
</g>
<!-- 3&#45;&gt;17 -->
<g id="edge56" class="edge">
<title>3&#45;&gt;17</title>
<path fill="none" stroke="grey" stroke-width="2" d="M810.46,-945.87C762.98,-938.68 696.1,-924.95 642,-900 383.86,-780.93 169.89,-713.97 206,-432 222.8,-300.8 179.83,-229.2 281,-144 324.83,-107.09 715.8,-95.15 859.4,-91.98"/>
<polygon fill="grey" stroke="grey" stroke-width="2" points="859.16,-95.49 869.08,-91.78 859.01,-88.49 859.16,-95.49"/>
</g>
<!-- 21 -->
<g id="node22" class="node">
<title>21</title>
<path fill="none" stroke="#56d892" stroke-width="2" d="M1112.5,-324C1112.5,-324 1057.5,-324 1057.5,-324 1051.5,-324 1045.5,-318 1045.5,-312 1045.5,-312 1045.5,-300 1045.5,-300 1045.5,-294 1051.5,-288 1057.5,-288 1057.5,-288 1112.5,-288 1112.5,-288 1118.5,-288 1124.5,-294 1124.5,-300 1124.5,-300 1124.5,-312 1124.5,-312 1124.5,-318 1118.5,-324 1112.5,-324"/>
<text text-anchor="middle" x="1085" y="-303.5" font-family="sans" font-size="10.00">make_nblink</text>
</g>
<!-- 3&#45;&gt;21 -->
<g id="edge63" class="edge">
<title>3&#45;&gt;21</title>
<path fill="none" stroke="grey" stroke-width="2" d="M907.15,-935.13C979.03,-896.76 1133,-799.15 1133,-667 1133,-667 1133,-667 1133,-521 1133,-453.98 1110.31,-377.95 1096.13,-336.98"/>
<polygon fill="grey" stroke="grey" stroke-width="2" points="1099.43,-335.84 1092.79,-327.59 1092.84,-338.18 1099.43,-335.84"/>
</g>
<!-- 3&#45;&gt;25 -->
<g id="edge75" class="edge">
<title>3&#45;&gt;25</title>
<path fill="none" stroke="grey" stroke-width="2" d="M864.36,-935.34C857.38,-917.18 845.78,-888.23 834,-864 793.88,-781.51 756.2,-772.75 733,-684 728.95,-668.52 731.99,-663.97 733,-648 738.57,-559.92 758,-539.26 758,-451 758,-451 758,-451 758,-305 758,-261.06 786.64,-217.56 808.75,-190.52"/>
<polygon fill="grey" stroke="grey" stroke-width="2" points="811.36,-192.85 815.17,-182.96 806.03,-188.31 811.36,-192.85"/>
</g>
<!-- 4 -->
<g id="node5" class="node">
<title>4</title>
<path fill="none" stroke="#a7d856" stroke-width="2" d="M1435,-1044C1435,-1044 1325,-1044 1325,-1044 1319,-1044 1313,-1038 1313,-1032 1313,-1032 1313,-1020 1313,-1020 1313,-1014 1319,-1008 1325,-1008 1325,-1008 1435,-1008 1435,-1008 1441,-1008 1447,-1014 1447,-1020 1447,-1020 1447,-1032 1447,-1032 1447,-1038 1441,-1044 1435,-1044"/>
<text text-anchor="middle" x="1380" y="-1023.5" font-family="sans" font-size="10.00">build_pacbio_consensus</text>
</g>
<!-- 4&#45;&gt;3 -->
<g id="edge11" class="edge">
<title>4&#45;&gt;3</title>
<path fill="none" stroke="grey" stroke-width="2" d="M1312.15,-1015.67C1216.56,-1002.52 1042.97,-978.65 944.44,-965.1"/>
<polygon fill="grey" stroke="grey" stroke-width="2" points="945.02,-961.65 934.64,-963.75 944.07,-968.58 945.02,-961.65"/>
</g>
<!-- 4&#45;&gt;17 -->
<g id="edge49" class="edge">
<title>4&#45;&gt;17</title>
<path fill="none" stroke="grey" stroke-width="2" d="M1389.14,-1007.29C1433.07,-919.75 1616.69,-525.17 1524,-216 1513.61,-181.34 1516.09,-164.09 1486,-144 1443.16,-115.4 1097.93,-98.52 964.44,-93.01"/>
<polygon fill="grey" stroke="grey" stroke-width="2" points="964.98,-89.53 954.85,-92.62 964.7,-96.52 964.98,-89.53"/>
</g>
<!-- 4&#45;&gt;21 -->
<g id="edge64" class="edge">
<title>4&#45;&gt;21</title>
<path fill="none" stroke="grey" stroke-width="2" d="M1376.06,-1007.17C1370.5,-980.36 1361,-928.02 1361,-883 1361,-883 1361,-883 1361,-593 1361,-467.13 1297.19,-439.99 1200,-360 1189.52,-351.38 1162.41,-338.75 1137.14,-327.98"/>
<polygon fill="grey" stroke="grey" stroke-width="2" points="1138.71,-324.84 1128.14,-324.2 1136,-331.3 1138.71,-324.84"/>
</g>
<!-- 4&#45;&gt;25 -->
<g id="edge77" class="edge">
<title>4&#45;&gt;25</title>
<path fill="none" stroke="grey" stroke-width="2" d="M1367.63,-1007.09C1350.87,-981.03 1323,-930.55 1323,-883 1323,-883 1323,-883 1323,-737 1323,-688.79 1291.44,-685.38 1261,-648 1107.96,-460.03 1031.43,-445.92 886,-252 871.87,-233.16 858.52,-210.16 848.89,-192.27"/>
<polygon fill="grey" stroke="grey" stroke-width="2" points="852.02,-190.7 844.26,-183.48 845.83,-193.96 852.02,-190.7"/>
</g>
<!-- 5 -->
<g id="node6" class="node">
<title>5</title>
<path fill="none" stroke="#80d856" stroke-width="2" d="M1612.5,-1116C1612.5,-1116 1523.5,-1116 1523.5,-1116 1517.5,-1116 1511.5,-1110 1511.5,-1104 1511.5,-1104 1511.5,-1092 1511.5,-1092 1511.5,-1086 1517.5,-1080 1523.5,-1080 1523.5,-1080 1612.5,-1080 1612.5,-1080 1618.5,-1080 1624.5,-1086 1624.5,-1092 1624.5,-1092 1624.5,-1104 1624.5,-1104 1624.5,-1110 1618.5,-1116 1612.5,-1116"/>
<text text-anchor="middle" x="1568" y="-1095.5" font-family="sans" font-size="10.00">analyze_pacbio_ccs</text>
</g>
<!-- 5&#45;&gt;4 -->
<g id="edge13" class="edge">
<title>5&#45;&gt;4</title>
<path fill="none" stroke="grey" stroke-width="2" d="M1520.07,-1079.15C1495.75,-1070.1 1465.96,-1059.01 1440.11,-1049.38"/>
<polygon fill="grey" stroke="grey" stroke-width="2" points="1441.6,-1046.2 1431,-1045.99 1439.15,-1052.76 1441.6,-1046.2"/>
</g>
<!-- 5&#45;&gt;17 -->
<g id="edge51" class="edge">
<title>5&#45;&gt;17</title>
<path fill="none" stroke="grey" stroke-width="2" d="M1598.28,-1079.1C1633.83,-1055.53 1688,-1010.52 1688,-955 1688,-955 1688,-955 1688,-233 1688,-146.14 1597.47,-168.03 1514,-144 1411.39,-114.46 1091.37,-98.39 964.54,-93.04"/>
<polygon fill="grey" stroke="grey" stroke-width="2" points="964.98,-89.56 954.84,-92.64 964.69,-96.55 964.98,-89.56"/>
</g>
<!-- 5&#45;&gt;21 -->
<g id="edge68" class="edge">
<title>5&#45;&gt;21</title>
<path fill="none" stroke="grey" stroke-width="2" d="M1571.94,-1079.17C1577.5,-1052.36 1587,-1000.02 1587,-955 1587,-955 1587,-955 1587,-809 1587,-555.43 1455.49,-485.23 1235,-360 1195.71,-337.68 1179.24,-340.07 1137.4,-326.45"/>
<polygon fill="grey" stroke="grey" stroke-width="2" points="1138.67,-323.18 1128.08,-323.24 1136.4,-329.8 1138.67,-323.18"/>
</g>
<!-- 5&#45;&gt;25 -->
<g id="edge83" class="edge">
<title>5&#45;&gt;25</title>
<path fill="none" stroke="grey" stroke-width="2" d="M1559.94,-1079.03C1548.79,-1052.48 1530,-1000.94 1530,-955 1530,-955 1530,-955 1530,-881 1530,-785.51 1511,-762.49 1511,-667 1511,-667 1511,-667 1511,-449 1511,-402.03 1491.73,-387.98 1454,-360 1359.41,-289.84 1313.05,-317.33 1199,-288 1130.51,-270.39 1107.47,-283.21 1044,-252 1021.33,-240.85 1022.21,-228.06 1000,-216 962.87,-195.84 916.85,-181.9 882.69,-173.4"/>
<polygon fill="grey" stroke="grey" stroke-width="2" points="883.7,-170.04 873.16,-171.11 882.07,-176.85 883.7,-170.04"/>
</g>
<!-- 6 -->
<g id="node7" class="node">
<title>6</title>
<path fill="none" stroke="#56b9d8" stroke-width="2" d="M1621.5,-1188C1621.5,-1188 1514.5,-1188 1514.5,-1188 1508.5,-1188 1502.5,-1182 1502.5,-1176 1502.5,-1176 1502.5,-1164 1502.5,-1164 1502.5,-1158 1508.5,-1152 1514.5,-1152 1514.5,-1152 1621.5,-1152 1621.5,-1152 1627.5,-1152 1633.5,-1158 1633.5,-1164 1633.5,-1164 1633.5,-1176 1633.5,-1176 1633.5,-1182 1627.5,-1188 1621.5,-1188"/>
<text text-anchor="middle" x="1568" y="-1167.5" font-family="sans" font-size="10.00">align_parse_PacBio_ccs</text>
</g>
<!-- 6&#45;&gt;5 -->
<g id="edge15" class="edge">
<title>6&#45;&gt;5</title>
<path fill="none" stroke="grey" stroke-width="2" d="M1568,-1151.34C1568,-1144.75 1568,-1137.08 1568,-1129.67"/>
<polygon fill="grey" stroke="grey" stroke-width="2" points="1571.5,-1129.93 1568,-1119.93 1564.5,-1129.93 1571.5,-1129.93"/>
</g>
<!-- 7 -->
<g id="node8" class="node">
<title>7</title>
<path fill="none" stroke="#56d86b" stroke-width="2" d="M905,-1116C905,-1116 837,-1116 837,-1116 831,-1116 825,-1110 825,-1104 825,-1104 825,-1092 825,-1092 825,-1086 831,-1080 837,-1080 837,-1080 905,-1080 905,-1080 911,-1080 917,-1086 917,-1092 917,-1092 917,-1104 917,-1104 917,-1110 911,-1116 905,-1116"/>
<text text-anchor="middle" x="871" y="-1095.5" font-family="sans" font-size="10.00">gene_sequence</text>
</g>
<!-- 7&#45;&gt;1 -->
<g id="edge8" class="edge">
<title>7&#45;&gt;1</title>
<path fill="none" stroke="grey" stroke-width="2" d="M848.04,-1079.14C809.16,-1047.53 730.81,-977.72 692,-900 682.97,-881.92 678.72,-859.58 676.73,-841.8"/>
<polygon fill="grey" stroke="grey" stroke-width="2" points="680.23,-841.63 675.86,-831.98 673.26,-842.25 680.23,-841.63"/>
</g>
<!-- 7&#45;&gt;3 -->
<g id="edge12" class="edge">
<title>7&#45;&gt;3</title>
<path fill="none" stroke="grey" stroke-width="2" d="M871,-1079.02C871,-1055.54 871,-1014.11 871,-985.64"/>
<polygon fill="grey" stroke="grey" stroke-width="2" points="874.5,-985.87 871,-975.87 867.5,-985.87 874.5,-985.87"/>
</g>
<!-- 7&#45;&gt;4 -->
<g id="edge14" class="edge">
<title>7&#45;&gt;4</title>
<path fill="none" stroke="grey" stroke-width="2" d="M917.73,-1092.51C996.62,-1084.63 1161.07,-1066.97 1299,-1044 1299.13,-1043.98 1299.27,-1043.96 1299.4,-1043.93"/>
<polygon fill="grey" stroke="grey" stroke-width="2" points="1299.8,-1047.42 1309.04,-1042.23 1298.58,-1040.52 1299.8,-1047.42"/>
</g>
<!-- 8 -->
<g id="node9" class="node">
<title>8</title>
<path fill="none" stroke="#56d87b" stroke-width="2" d="M1025.5,-1044C1025.5,-1044 930.5,-1044 930.5,-1044 924.5,-1044 918.5,-1038 918.5,-1032 918.5,-1032 918.5,-1020 918.5,-1020 918.5,-1014 924.5,-1008 930.5,-1008 930.5,-1008 1025.5,-1008 1025.5,-1008 1031.5,-1008 1037.5,-1014 1037.5,-1020 1037.5,-1020 1037.5,-1032 1037.5,-1032 1037.5,-1038 1031.5,-1044 1025.5,-1044"/>
<text text-anchor="middle" x="978" y="-1023.5" font-family="sans" font-size="10.00">site_numbering_map</text>
</g>
<!-- 7&#45;&gt;8 -->
<g id="edge16" class="edge">
<title>7&#45;&gt;8</title>
<path fill="none" stroke="grey" stroke-width="2" d="M898.28,-1079.15C910.98,-1070.84 926.3,-1060.82 940.11,-1051.79"/>
<polygon fill="grey" stroke="grey" stroke-width="2" points="941.79,-1054.87 948.24,-1046.47 937.95,-1049.02 941.79,-1054.87"/>
</g>
<!-- 7&#45;&gt;10 -->
<g id="edge21" class="edge">
<title>7&#45;&gt;10</title>
<path fill="none" stroke="grey" stroke-width="2" d="M917.79,-1097.3C959.2,-1094.75 1017.5,-1083.7 1047,-1044 1112.25,-956.21 1018.65,-823.74 971.44,-766.72"/>
<polygon fill="grey" stroke="grey" stroke-width="2" points="974.29,-764.67 965.16,-759.29 968.94,-769.18 974.29,-764.67"/>
</g>
<!-- 7&#45;&gt;14 -->
<g id="edge32" class="edge">
<title>7&#45;&gt;14</title>
<path fill="none" stroke="grey" stroke-width="2" d="M824.22,-1095.14C689.63,-1088.53 311,-1060.56 311,-955 311,-955 311,-955 311,-881 311,-776.09 389.9,-670.87 431.7,-622.49"/>
<polygon fill="grey" stroke="grey" stroke-width="2" points="434.27,-624.86 438.25,-615.05 429.01,-620.24 434.27,-624.86"/>
</g>
<!-- 7&#45;&gt;16 -->
<g id="edge39" class="edge">
<title>7&#45;&gt;16</title>
<path fill="none" stroke="grey" stroke-width="2" d="M917.69,-1091.07C1025.96,-1076.01 1285,-1031.94 1285,-955 1285,-955 1285,-955 1285,-737 1285,-654.75 1176.77,-618.43 1109.44,-603.79"/>
<polygon fill="grey" stroke="grey" stroke-width="2" points="1110.44,-600.43 1099.94,-601.84 1109.03,-607.28 1110.44,-600.43"/>
</g>
<!-- 7&#45;&gt;17 -->
<g id="edge53" class="edge">
<title>7&#45;&gt;17</title>
<path fill="none" stroke="grey" stroke-width="2" d="M824.13,-1096.91C720.5,-1095.85 464.56,-1088.51 256,-1044 138.2,-1018.86 0,-1075.46 0,-955 0,-955 0,-955 0,-305 0,-175.45 120.53,-186.24 243,-144 356.66,-104.8 721.84,-94.36 859.15,-91.78"/>
<polygon fill="grey" stroke="grey" stroke-width="2" points="859.13,-95.28 869.06,-91.61 859,-88.29 859.13,-95.28"/>
</g>
<!-- 7&#45;&gt;25 -->
<g id="edge88" class="edge">
<title>7&#45;&gt;25</title>
<path fill="none" stroke="grey" stroke-width="2" d="M824.29,-1095.67C712.44,-1091.93 432.17,-1079.24 346,-1044 287.47,-1020.06 235,-1018.23 235,-955 235,-955 235,-955 235,-521 235,-450.46 268.89,-261.26 323,-216 357.99,-186.73 663.4,-170.39 784.67,-165.01"/>
<polygon fill="grey" stroke="grey" stroke-width="2" points="784.65,-168.52 794.48,-164.59 784.34,-161.52 784.65,-168.52"/>
</g>
<!-- 8&#45;&gt;3 -->
<g id="edge10" class="edge">
<title>8&#45;&gt;3</title>
<path fill="none" stroke="grey" stroke-width="2" d="M950.72,-1007.15C938.02,-998.84 922.7,-988.82 908.89,-979.79"/>
<polygon fill="grey" stroke="grey" stroke-width="2" points="911.05,-977.02 900.76,-974.47 907.21,-982.87 911.05,-977.02"/>
</g>
<!-- 8&#45;&gt;10 -->
<g id="edge22" class="edge">
<title>8&#45;&gt;10</title>
<path fill="none" stroke="grey" stroke-width="2" d="M976.06,-1007.11C970.91,-959.56 956.82,-829.6 950.34,-769.83"/>
<polygon fill="grey" stroke="grey" stroke-width="2" points="953.82,-769.46 949.26,-759.89 946.86,-770.21 953.82,-769.46"/>
</g>
<!-- 11 -->
<g id="node12" class="node">
<title>11</title>
<path fill="none" stroke="#567bd8" stroke-width="2" d="M1433,-396C1433,-396 1335,-396 1335,-396 1329,-396 1323,-390 1323,-384 1323,-384 1323,-372 1323,-372 1323,-366 1329,-360 1335,-360 1335,-360 1433,-360 1433,-360 1439,-360 1445,-366 1445,-372 1445,-372 1445,-384 1445,-384 1445,-390 1439,-396 1433,-396"/>
<text text-anchor="middle" x="1384" y="-375.5" font-family="sans" font-size="10.00">avg_antibody_escape</text>
</g>
<!-- 8&#45;&gt;11 -->
<g id="edge23" class="edge">
<title>8&#45;&gt;11</title>
<path fill="none" stroke="grey" stroke-width="2" d="M1038.35,-1009.09C1060.46,-1000.89 1084.36,-988.95 1102,-972 1124.66,-950.23 1317.47,-526.08 1370.53,-408.82"/>
<polygon fill="grey" stroke="grey" stroke-width="2" points="1373.71,-410.27 1374.65,-399.72 1367.34,-407.39 1373.71,-410.27"/>
</g>
<!-- 13 -->
<g id="node14" class="node">
<title>13</title>
<path fill="none" stroke="#d8a456" stroke-width="2" d="M486.5,-540C486.5,-540 405.5,-540 405.5,-540 399.5,-540 393.5,-534 393.5,-528 393.5,-528 393.5,-516 393.5,-516 393.5,-510 399.5,-504 405.5,-504 405.5,-504 486.5,-504 486.5,-504 492.5,-504 498.5,-510 498.5,-516 498.5,-516 498.5,-528 498.5,-528 498.5,-534 492.5,-540 486.5,-540"/>
<text text-anchor="middle" x="446" y="-519.5" font-family="sans" font-size="10.00">fit_globalepistasis</text>
</g>
<!-- 8&#45;&gt;13 -->
<g id="edge27" class="edge">
<title>8&#45;&gt;13</title>
<path fill="none" stroke="grey" stroke-width="2" d="M917.62,-1025.49C800.15,-1025.36 546.15,-1019.41 475,-972 407.14,-926.78 387,-892.55 387,-811 387,-811 387,-811 387,-665 387,-624.03 394.16,-613.35 411,-576 414.78,-567.63 419.8,-559.09 424.86,-551.38"/>
<polygon fill="grey" stroke="grey" stroke-width="2" points="427.65,-553.51 430.44,-543.29 421.88,-549.53 427.65,-553.51"/>
</g>
<!-- 8&#45;&gt;14 -->
<g id="edge33" class="edge">
<title>8&#45;&gt;14</title>
<path fill="none" stroke="grey" stroke-width="2" d="M917.77,-1024C810.11,-1021.23 589.88,-1010.84 525,-972 483.64,-947.24 463,-931.21 463,-883 463,-883 463,-883 463,-737 463,-698.62 460.78,-654.45 459.05,-625.71"/>
<polygon fill="grey" stroke="grey" stroke-width="2" points="462.55,-625.7 458.43,-615.94 455.57,-626.14 462.55,-625.7"/>
</g>
<!-- 15 -->
<g id="node16" class="node">
<title>15</title>
<path fill="none" stroke="#56a9d8" stroke-width="2" d="M1231,-468C1231,-468 1173,-468 1173,-468 1167,-468 1161,-462 1161,-456 1161,-456 1161,-444 1161,-444 1161,-438 1167,-432 1173,-432 1173,-432 1231,-432 1231,-432 1237,-432 1243,-438 1243,-444 1243,-444 1243,-456 1243,-456 1243,-462 1237,-468 1231,-468"/>
<text text-anchor="middle" x="1202" y="-447.5" font-family="sans" font-size="10.00">fit_polyclonal</text>
</g>
<!-- 8&#45;&gt;15 -->
<g id="edge34" class="edge">
<title>8&#45;&gt;15</title>
<path fill="none" stroke="grey" stroke-width="2" d="M1027.34,-1007.11C1045.15,-998.68 1064.23,-987.1 1078,-972 1101.35,-946.38 1096.78,-932.8 1108,-900 1160.19,-747.45 1188.62,-555.37 1198.23,-481.69"/>
<polygon fill="grey" stroke="grey" stroke-width="2" points="1201.68,-482.33 1199.47,-471.97 1194.74,-481.44 1201.68,-482.33"/>
</g>
<!-- 8&#45;&gt;16 -->
<g id="edge40" class="edge">
<title>8&#45;&gt;16</title>
<path fill="none" stroke="grey" stroke-width="2" d="M1007.22,-1007.12C1041.88,-983.42 1095,-938.1 1095,-883 1095,-883 1095,-883 1095,-737 1095,-697.16 1080.87,-653.11 1069.85,-624.8"/>
<polygon fill="grey" stroke="grey" stroke-width="2" points="1073.19,-623.73 1066.19,-615.77 1066.7,-626.36 1073.19,-623.73"/>
</g>
<!-- 8&#45;&gt;17 -->
<g id="edge54" class="edge">
<title>8&#45;&gt;17</title>
<path fill="none" stroke="grey" stroke-width="2" d="M1038.24,-1012.88C1067,-1004.86 1100.6,-992.02 1126,-972 1400.82,-755.36 1544.86,-636.75 1516,-288 1510.22,-218.2 1512.72,-178.9 1452,-144 1369.91,-96.83 1083.83,-91.06 964.69,-90.76"/>
<polygon fill="grey" stroke="grey" stroke-width="2" points="964.71,-87.26 954.71,-90.75 964.71,-94.26 964.71,-87.26"/>
</g>
<!-- 8&#45;&gt;25 -->
<g id="edge89" class="edge">
<title>8&#45;&gt;25</title>
<path fill="none" stroke="grey" stroke-width="2" d="M917.88,-1018.31C797.65,-1003.25 539,-961.7 539,-883 539,-883 539,-883 539,-809 539,-609.11 495.92,-547.57 565,-360 592.74,-284.68 608.74,-262.73 674,-216 692.09,-203.05 745.13,-186.79 785.22,-175.71"/>
<polygon fill="grey" stroke="grey" stroke-width="2" points="786.08,-179.11 794.81,-173.11 784.24,-172.36 786.08,-179.11"/>
</g>
<!-- 9 -->
<g id="node10" class="node">
<title>9</title>
<path fill="none" stroke="#d85656" stroke-width="2" d="M902.5,-684C902.5,-684 753.5,-684 753.5,-684 747.5,-684 741.5,-678 741.5,-672 741.5,-672 741.5,-660 741.5,-660 741.5,-654 747.5,-648 753.5,-648 753.5,-648 902.5,-648 902.5,-648 908.5,-648 914.5,-654 914.5,-660 914.5,-660 914.5,-672 914.5,-672 914.5,-678 908.5,-684 902.5,-684"/>
<text text-anchor="middle" x="828" y="-663.5" font-family="sans" font-size="10.00">check_adequate_variant_counts</text>
</g>
<!-- 9&#45;&gt;0 -->
<g id="edge1" class="edge">
<title>9&#45;&gt;0</title>
<path fill="none" stroke="grey" stroke-width="2" d="M761.87,-647.03C642.41,-614.48 401.32,-548.33 384,-540 284.95,-492.39 242.51,-488.38 183,-396 111.03,-284.27 109.36,-117.39 112.1,-49.43"/>
<polygon fill="grey" stroke="grey" stroke-width="2" points="115.58,-50.03 112.57,-39.87 108.59,-49.69 115.58,-50.03"/>
</g>
<!-- 9&#45;&gt;14 -->
<g id="edge30" class="edge">
<title>9&#45;&gt;14</title>
<path fill="none" stroke="grey" stroke-width="2" d="M740.66,-654.32C675.9,-645.49 585.75,-631.27 508,-612 507.73,-611.93 507.47,-611.87 507.2,-611.8"/>
<polygon fill="grey" stroke="grey" stroke-width="2" points="508.45,-608.51 497.88,-609.2 506.57,-615.26 508.45,-608.51"/>
</g>
<!-- 9&#45;&gt;16 -->
<g id="edge37" class="edge">
<title>9&#45;&gt;16</title>
<path fill="none" stroke="grey" stroke-width="2" d="M886.68,-647.06C923.15,-635.92 969.62,-621.71 1004.8,-610.95"/>
<polygon fill="grey" stroke="grey" stroke-width="2" points="1005.78,-614.32 1014.32,-608.05 1003.74,-607.62 1005.78,-614.32"/>
</g>
<!-- 10&#45;&gt;9 -->
<g id="edge17" class="edge">
<title>10&#45;&gt;9</title>
<path fill="none" stroke="grey" stroke-width="2" d="M916.66,-719.15C902.26,-710.68 884.82,-700.42 869.23,-691.25"/>
<polygon fill="grey" stroke="grey" stroke-width="2" points="871.28,-688.4 860.89,-686.35 867.74,-694.43 871.28,-688.4"/>
</g>
<!-- 10&#45;&gt;17 -->
<g id="edge43" class="edge">
<title>10&#45;&gt;17</title>
<path fill="none" stroke="grey" stroke-width="2" d="M981.39,-719.05C1087.75,-662.94 1408.5,-489 1479,-396 1508.59,-356.96 1507.93,-336.49 1501,-288 1490.39,-213.75 1480.1,-177.52 1413,-144 1335.37,-105.21 1077.07,-94.71 964.83,-91.95"/>
<polygon fill="grey" stroke="grey" stroke-width="2" points="964.99,-88.45 954.92,-91.72 964.83,-95.45 964.99,-88.45"/>
</g>
<!-- 10&#45;&gt;21 -->
<g id="edge67" class="edge">
<title>10&#45;&gt;21</title>
<path fill="none" stroke="grey" stroke-width="2" d="M952.75,-719.07C974.09,-652.6 1048.79,-419.83 1075.45,-336.75"/>
<polygon fill="grey" stroke="grey" stroke-width="2" points="1078.73,-338 1078.45,-327.41 1072.06,-335.87 1078.73,-338"/>
</g>
<!-- 10&#45;&gt;25 -->
<g id="edge81" class="edge">
<title>10&#45;&gt;25</title>
<path fill="none" stroke="grey" stroke-width="2" d="M943.47,-719.3C939.61,-701.12 932.77,-672.15 924,-648 878.79,-523.56 796,-511.4 796,-379 796,-379 796,-379 796,-305 796,-265.16 810.13,-221.11 821.15,-192.8"/>
<polygon fill="grey" stroke="grey" stroke-width="2" points="824.3,-194.36 824.81,-183.77 817.81,-191.73 824.3,-194.36"/>
</g>
<!-- 11&#45;&gt;0 -->
<g id="edge3" class="edge">
<title>11&#45;&gt;0</title>
<path fill="none" stroke="grey" stroke-width="2" d="M1412.65,-359.09C1424.79,-350.04 1437.96,-338 1446,-324 1470.07,-282.07 1480.4,-259.35 1459,-216 1435.7,-168.81 1413.16,-165.21 1365,-144 1140.28,-45.05 344.31,-23.48 154.74,-19.7"/>
<polygon fill="grey" stroke="grey" stroke-width="2" points="155,-16.21 144.94,-19.51 154.87,-23.21 155,-16.21"/>
</g>
<!-- 11&#45;&gt;17 -->
<g id="edge57" class="edge">
<title>11&#45;&gt;17</title>
<path fill="none" stroke="grey" stroke-width="2" d="M1399.76,-359.46C1425.46,-328.64 1470.66,-263.55 1441,-216 1390.34,-134.78 1087.8,-103.79 964.37,-94.42"/>
<polygon fill="grey" stroke="grey" stroke-width="2" points="964.86,-90.95 954.63,-93.71 964.35,-97.93 964.86,-90.95"/>
</g>
<!-- 11&#45;&gt;21 -->
<g id="edge70" class="edge">
<title>11&#45;&gt;21</title>
<path fill="none" stroke="grey" stroke-width="2" d="M1322.21,-362.92C1317.74,-361.93 1313.3,-360.94 1309,-360 1233.56,-343.46 1213.7,-343.62 1139,-324 1138.58,-323.89 1138.16,-323.78 1137.74,-323.67"/>
<polygon fill="grey" stroke="grey" stroke-width="2" points="1138.76,-320.32 1128.19,-320.97 1136.86,-327.05 1138.76,-320.32"/>
</g>
<!-- 24 -->
<g id="node25" class="node">
<title>24</title>
<path fill="none" stroke="#d8bc56" stroke-width="2" d="M1419.5,-252C1419.5,-252 1282.5,-252 1282.5,-252 1276.5,-252 1270.5,-246 1270.5,-240 1270.5,-240 1270.5,-228 1270.5,-228 1270.5,-222 1276.5,-216 1282.5,-216 1282.5,-216 1419.5,-216 1419.5,-216 1425.5,-216 1431.5,-222 1431.5,-228 1431.5,-228 1431.5,-240 1431.5,-240 1431.5,-246 1425.5,-252 1419.5,-252"/>
<text text-anchor="middle" x="1351" y="-231.5" font-family="sans" font-size="10.00">format_antibody_escape_plot</text>
</g>
<!-- 11&#45;&gt;24 -->
<g id="edge74" class="edge">
<title>11&#45;&gt;24</title>
<path fill="none" stroke="grey" stroke-width="2" d="M1379.82,-359.02C1374.34,-335.44 1364.65,-293.73 1358.03,-265.25"/>
<polygon fill="grey" stroke="grey" stroke-width="2" points="1361.5,-264.74 1355.83,-255.79 1354.69,-266.32 1361.5,-264.74"/>
</g>
<!-- 11&#45;&gt;25 -->
<g id="edge84" class="edge">
<title>11&#45;&gt;25</title>
<path fill="none" stroke="grey" stroke-width="2" d="M1336.36,-359.09C1286.27,-340.48 1205.03,-310.93 1134,-288 1079.39,-270.37 1061.34,-277.63 1010,-252 986.14,-240.09 985.17,-229.2 962,-216 936.79,-201.63 906.92,-189.04 882.38,-179.74"/>
<polygon fill="grey" stroke="grey" stroke-width="2" points="883.88,-176.56 873.28,-176.36 881.44,-183.12 883.88,-176.56"/>
</g>
<!-- 12 -->
<g id="node13" class="node">
<title>12</title>
<path fill="none" stroke="#b6d856" stroke-width="2" d="M468,-468C468,-468 400,-468 400,-468 394,-468 388,-462 388,-456 388,-456 388,-444 388,-444 388,-438 394,-432 400,-432 400,-432 468,-432 468,-432 474,-432 480,-438 480,-444 480,-444 480,-456 480,-456 480,-462 474,-468 468,-468"/>
<text text-anchor="middle" x="434" y="-447.5" font-family="sans" font-size="10.00">avg_muteffects</text>
</g>
<!-- 12&#45;&gt;0 -->
<g id="edge5" class="edge">
<title>12&#45;&gt;0</title>
<path fill="none" stroke="grey" stroke-width="2" d="M407.15,-431.06C361.85,-399.59 269.74,-330.32 214,-252 167.42,-186.55 136.43,-96.02 122.48,-49.42"/>
<polygon fill="grey" stroke="grey" stroke-width="2" points="125.86,-48.49 119.69,-39.87 119.14,-50.45 125.86,-48.49"/>
</g>
<!-- 12&#45;&gt;11 -->
<g id="edge24" class="edge">
<title>12&#45;&gt;11</title>
<path fill="none" stroke="grey" stroke-width="2" d="M480.79,-445.55C634.04,-434.26 1121.84,-398.32 1309.47,-384.49"/>
<polygon fill="grey" stroke="grey" stroke-width="2" points="1309.45,-388 1319.17,-383.78 1308.94,-381.02 1309.45,-388"/>
</g>
<!-- 12&#45;&gt;17 -->
<g id="edge48" class="edge">
<title>12&#45;&gt;17</title>
<path fill="none" stroke="grey" stroke-width="2" d="M420.94,-431.15C387.16,-383.98 301.03,-256.84 323,-216 350.5,-164.87 377.4,-163.74 432,-144 509.58,-115.96 751.53,-99.71 859.3,-93.69"/>
<polygon fill="grey" stroke="grey" stroke-width="2" points="859.25,-97.2 869.04,-93.16 858.86,-90.21 859.25,-97.2"/>
</g>
<!-- 12&#45;&gt;21 -->
<g id="edge71" class="edge">
<title>12&#45;&gt;21</title>
<path fill="none" stroke="grey" stroke-width="2" d="M480.83,-445.57C600.47,-436.6 911.03,-412.09 955,-396 993.21,-382.02 1030.9,-354.23 1055.79,-333.41"/>
<polygon fill="grey" stroke="grey" stroke-width="2" points="1058.02,-336.11 1063.33,-326.94 1053.46,-330.79 1058.02,-336.11"/>
</g>
<!-- 22 -->
<g id="node23" class="node">
<title>22</title>
<path fill="none" stroke="#566bd8" stroke-width="2" d="M451.5,-252C451.5,-252 344.5,-252 344.5,-252 338.5,-252 332.5,-246 332.5,-240 332.5,-240 332.5,-228 332.5,-228 332.5,-222 338.5,-216 344.5,-216 344.5,-216 451.5,-216 451.5,-216 457.5,-216 463.5,-222 463.5,-228 463.5,-228 463.5,-240 463.5,-240 463.5,-246 457.5,-252 451.5,-252"/>
<text text-anchor="middle" x="398" y="-231.5" font-family="sans" font-size="10.00">format_muteffects_plot</text>
</g>
<!-- 12&#45;&gt;22 -->
<g id="edge73" class="edge">
<title>12&#45;&gt;22</title>
<path fill="none" stroke="grey" stroke-width="2" d="M430.99,-431.12C424.85,-394.62 410.81,-311.13 403.17,-265.74"/>
<polygon fill="grey" stroke="grey" stroke-width="2" points="406.64,-265.24 401.53,-255.96 399.73,-266.4 406.64,-265.24"/>
</g>
<!-- 12&#45;&gt;25 -->
<g id="edge90" class="edge">
<title>12&#45;&gt;25</title>
<path fill="none" stroke="grey" stroke-width="2" d="M440.51,-431.23C457.69,-386.95 508.78,-271.35 592,-216 658.84,-171.54 690.8,-198.16 769,-180 774.24,-178.78 779.7,-177.45 785.14,-176.09"/>
<polygon fill="grey" stroke="grey" stroke-width="2" points="785.9,-179.51 794.71,-173.64 784.16,-172.73 785.9,-179.51"/>
</g>
<!-- 13&#45;&gt;12 -->
<g id="edge26" class="edge">
<title>13&#45;&gt;12</title>
<path fill="none" stroke="grey" stroke-width="2" d="M442.97,-503.34C441.84,-496.75 440.53,-489.08 439.26,-481.67"/>
<polygon fill="grey" stroke="grey" stroke-width="2" points="442.72,-481.15 437.58,-471.89 435.82,-482.33 442.72,-481.15"/>
</g>
<!-- 13&#45;&gt;17 -->
<g id="edge44" class="edge">
<title>13&#45;&gt;17</title>
<path fill="none" stroke="grey" stroke-width="2" d="M416.33,-503.18C403.31,-494.08 388.79,-481.96 379,-468 295.91,-349.53 229.98,-229.12 347,-144 387.92,-114.23 727.04,-98.11 859.39,-92.9"/>
<polygon fill="grey" stroke="grey" stroke-width="2" points="859.39,-96.4 869.25,-92.52 859.12,-89.41 859.39,-96.4"/>
</g>
<!-- 13&#45;&gt;21 -->
<g id="edge72" class="edge">
<title>13&#45;&gt;21</title>
<path fill="none" stroke="grey" stroke-width="2" d="M499.4,-519.2C602.84,-513.61 834.95,-490.61 1001,-396 1027.32,-381 1050.38,-355.1 1065.65,-335.09"/>
<polygon fill="grey" stroke="grey" stroke-width="2" points="1068.4,-337.26 1071.51,-327.13 1062.76,-333.11 1068.4,-337.26"/>
</g>
<!-- 13&#45;&gt;25 -->
<g id="edge92" class="edge">
<title>13&#45;&gt;25</title>
<path fill="none" stroke="grey" stroke-width="2" d="M462.58,-503.37C471.25,-493.51 481.57,-480.67 489,-468 515.13,-423.43 507.77,-405.63 532,-360 568.31,-291.63 566.7,-260.56 630,-216 682.18,-179.27 707.24,-196.07 769,-180 774.21,-178.64 779.65,-177.23 785.07,-175.81"/>
<polygon fill="grey" stroke="grey" stroke-width="2" points="785.84,-179.23 794.63,-173.31 784.07,-172.45 785.84,-179.23"/>
</g>
<!-- 14&#45;&gt;13 -->
<g id="edge28" class="edge">
<title>14&#45;&gt;13</title>
<path fill="none" stroke="grey" stroke-width="2" d="M454.22,-575.34C453.19,-568.75 451.98,-561.08 450.82,-553.67"/>
<polygon fill="grey" stroke="grey" stroke-width="2" points="454.29,-553.23 449.28,-543.89 447.38,-554.31 454.29,-553.23"/>
</g>
<!-- 18 -->
<g id="node19" class="node">
<title>18</title>
<path fill="none" stroke="#d86e56" stroke-width="2" d="M680,-396C680,-396 586,-396 586,-396 580,-396 574,-390 574,-384 574,-384 574,-372 574,-372 574,-366 580,-360 586,-360 586,-360 680,-360 680,-360 686,-360 692,-366 692,-372 692,-372 692,-384 692,-384 692,-390 686,-396 680,-396"/>
<text text-anchor="middle" x="633" y="-375.5" font-family="sans" font-size="10.00">analyze_func_scores</text>
</g>
<!-- 14&#45;&gt;18 -->
<g id="edge60" class="edge">
<title>14&#45;&gt;18</title>
<path fill="none" stroke="grey" stroke-width="2" d="M474.95,-575.29C484.95,-565.2 497.47,-552.17 508,-540 546.9,-495.04 588.58,-439.75 612.63,-407.05"/>
<polygon fill="grey" stroke="grey" stroke-width="2" points="615.21,-409.45 618.3,-399.32 609.57,-405.32 615.21,-409.45"/>
</g>
<!-- 15&#45;&gt;11 -->
<g id="edge25" class="edge">
<title>15&#45;&gt;11</title>
<path fill="none" stroke="grey" stroke-width="2" d="M1243.75,-432.94C1267.96,-423.63 1298.82,-411.76 1325.43,-401.53"/>
<polygon fill="grey" stroke="grey" stroke-width="2" points="1326.41,-404.9 1334.49,-398.04 1323.9,-398.36 1326.41,-404.9"/>
</g>
<!-- 15&#45;&gt;17 -->
<g id="edge58" class="edge">
<title>15&#45;&gt;17</title>
<path fill="none" stroke="grey" stroke-width="2" d="M1243.77,-440.89C1314.51,-427.08 1450.6,-400.05 1454,-396 1505.5,-334.74 1494.43,-287.76 1459,-216 1435.7,-168.81 1413.77,-163.77 1365,-144 1293.47,-115.01 1068.17,-99.44 964.79,-93.66"/>
<polygon fill="grey" stroke="grey" stroke-width="2" points="965.12,-90.17 954.94,-93.12 964.74,-97.16 965.12,-90.17"/>
</g>
<!-- 15&#45;&gt;21 -->
<g id="edge69" class="edge">
<title>15&#45;&gt;21</title>
<path fill="none" stroke="grey" stroke-width="2" d="M1201.18,-431.18C1199.45,-411.82 1194.15,-380.89 1178,-360 1167.31,-346.18 1151.93,-335.36 1136.74,-327.2"/>
<polygon fill="grey" stroke="grey" stroke-width="2" points="1138.47,-324.15 1127.96,-322.82 1135.35,-330.41 1138.47,-324.15"/>
</g>
<!-- 15&#45;&gt;25 -->
<g id="edge85" class="edge">
<title>15&#45;&gt;25</title>
<path fill="none" stroke="grey" stroke-width="2" d="M1173.67,-431.14C1122.11,-398.15 1010.32,-324.44 924,-252 911.24,-241.3 882.04,-212.07 860.34,-190"/>
<polygon fill="grey" stroke="grey" stroke-width="2" points="862.9,-187.61 853.4,-182.92 857.9,-192.51 862.9,-187.61"/>
</g>
<!-- 16&#45;&gt;15 -->
<g id="edge35" class="edge">
<title>16&#45;&gt;15</title>
<path fill="none" stroke="grey" stroke-width="2" d="M1075.36,-575.02C1100.42,-550.48 1145.53,-506.3 1174.59,-477.84"/>
<polygon fill="grey" stroke="grey" stroke-width="2" points="1176.93,-480.45 1181.62,-470.96 1172.03,-475.45 1176.93,-480.45"/>
</g>
<!-- 19 -->
<g id="node20" class="node">
<title>19</title>
<path fill="none" stroke="#d87d56" stroke-width="2" d="M934,-396C934,-396 836,-396 836,-396 830,-396 824,-390 824,-384 824,-384 824,-372 824,-372 824,-366 830,-360 836,-360 836,-360 934,-360 934,-360 940,-360 946,-366 946,-372 946,-372 946,-384 946,-384 946,-390 940,-396 934,-396"/>
<text text-anchor="middle" x="885" y="-375.5" font-family="sans" font-size="10.00">analyze_prob_escape</text>
</g>
<!-- 16&#45;&gt;19 -->
<g id="edge61" class="edge">
<title>16&#45;&gt;19</title>
<path fill="none" stroke="grey" stroke-width="2" d="M1042.63,-575.12C1012.66,-537.83 943.28,-451.51 907.4,-406.86"/>
<polygon fill="grey" stroke="grey" stroke-width="2" points="910.34,-404.94 901.35,-399.34 904.88,-409.32 910.34,-404.94"/>
</g>
<!-- 17&#45;&gt;0 -->
<g id="edge4" class="edge">
<title>17&#45;&gt;0</title>
<path fill="none" stroke="grey" stroke-width="2" d="M872.15,-85.5C736.23,-73.58 291.62,-34.58 154.58,-22.56"/>
<polygon fill="grey" stroke="grey" stroke-width="2" points="155.22,-19.1 144.95,-21.72 154.61,-26.08 155.22,-19.1"/>
</g>
<!-- 18&#45;&gt;17 -->
<g id="edge41" class="edge">
<title>18&#45;&gt;17</title>
<path fill="none" stroke="grey" stroke-width="2" d="M639.07,-359.08C654.55,-315.97 699.54,-205.5 773,-144 797.81,-123.23 831.64,-110.09 859.71,-102.09"/>
<polygon fill="grey" stroke="grey" stroke-width="2" points="860.47,-105.51 869.22,-99.55 858.66,-98.75 860.47,-105.51"/>
</g>
<!-- 18&#45;&gt;21 -->
<g id="edge65" class="edge">
<title>18&#45;&gt;21</title>
<path fill="none" stroke="grey" stroke-width="2" d="M692.56,-367.78C781.39,-354.02 947.22,-328.34 1032.05,-315.2"/>
<polygon fill="grey" stroke="grey" stroke-width="2" points="1032.36,-318.69 1041.71,-313.7 1031.29,-311.78 1032.36,-318.69"/>
</g>
<!-- 18&#45;&gt;25 -->
<g id="edge78" class="edge">
<title>18&#45;&gt;25</title>
<path fill="none" stroke="grey" stroke-width="2" d="M636.58,-359.02C643.97,-326.32 663.87,-256.76 706,-216 727.76,-194.95 759.08,-181.78 785.29,-173.84"/>
<polygon fill="grey" stroke="grey" stroke-width="2" points="786.09,-177.25 794.76,-171.17 784.19,-170.51 786.09,-177.25"/>
</g>
<!-- 19&#45;&gt;17 -->
<g id="edge42" class="edge">
<title>19&#45;&gt;17</title>
<path fill="none" stroke="grey" stroke-width="2" d="M866.77,-359.22C827.45,-318.68 741.96,-217.24 790,-144 805.56,-120.27 834.3,-107.11 859.97,-99.84"/>
<polygon fill="grey" stroke="grey" stroke-width="2" points="860.49,-103.32 869.33,-97.47 858.77,-96.53 860.49,-103.32"/>
</g>
<!-- 19&#45;&gt;21 -->
<g id="edge66" class="edge">
<title>19&#45;&gt;21</title>
<path fill="none" stroke="grey" stroke-width="2" d="M936.25,-359.06C965.71,-348.75 1002.66,-335.82 1032.36,-325.42"/>
<polygon fill="grey" stroke="grey" stroke-width="2" points="1033.47,-328.75 1041.75,-322.14 1031.15,-322.14 1033.47,-328.75"/>
</g>
<!-- 19&#45;&gt;25 -->
<g id="edge79" class="edge">
<title>19&#45;&gt;25</title>
<path fill="none" stroke="grey" stroke-width="2" d="M880.74,-359.12C872.02,-322.54 852.06,-238.77 841.26,-193.45"/>
<polygon fill="grey" stroke="grey" stroke-width="2" points="844.71,-192.84 838.99,-183.92 837.9,-194.46 844.71,-192.84"/>
</g>
<!-- 20 -->
<g id="node21" class="node">
<title>20</title>
<path fill="none" stroke="#56d8a9" stroke-width="2" d="M1101.5,-252C1101.5,-252 1064.5,-252 1064.5,-252 1058.5,-252 1052.5,-246 1052.5,-240 1052.5,-240 1052.5,-228 1052.5,-228 1052.5,-222 1058.5,-216 1064.5,-216 1064.5,-216 1101.5,-216 1101.5,-216 1107.5,-216 1113.5,-222 1113.5,-228 1113.5,-228 1113.5,-240 1113.5,-240 1113.5,-246 1107.5,-252 1101.5,-252"/>
<text text-anchor="middle" x="1083" y="-231.5" font-family="sans" font-size="10.00">subindex</text>
</g>
<!-- 20&#45;&gt;17 -->
<g id="edge55" class="edge">
<title>20&#45;&gt;17</title>
<path fill="none" stroke="grey" stroke-width="2" d="M1061.34,-215.02C1031.53,-190.26 977.67,-145.53 943.43,-117.1"/>
<polygon fill="grey" stroke="grey" stroke-width="2" points="945.74,-114.47 935.81,-110.77 941.27,-119.85 945.74,-114.47"/>
</g>
<!-- 20&#45;&gt;25 -->
<g id="edge91" class="edge">
<title>20&#45;&gt;25</title>
<path fill="none" stroke="grey" stroke-width="2" d="M1051.68,-220.68C1047.12,-219.03 1042.46,-217.42 1038,-216 985.65,-199.36 924.55,-184.01 882.96,-174.16"/>
<polygon fill="grey" stroke="grey" stroke-width="2" points="883.93,-170.79 873.39,-171.92 882.33,-177.61 883.93,-170.79"/>
</g>
<!-- 21&#45;&gt;17 -->
<g id="edge52" class="edge">
<title>21&#45;&gt;17</title>
<path fill="none" stroke="grey" stroke-width="2" d="M1125.5,-301.53C1157.86,-296.39 1201.27,-283.62 1223,-252 1232.06,-238.81 1231.79,-229.37 1223,-216 1165.95,-129.27 1037.38,-102.72 964.68,-94.59"/>
<polygon fill="grey" stroke="grey" stroke-width="2" points="965.1,-91.11 954.8,-93.58 964.39,-98.08 965.1,-91.11"/>
</g>
<!-- 21&#45;&gt;20 -->
<g id="edge62" class="edge">
<title>21&#45;&gt;20</title>
<path fill="none" stroke="grey" stroke-width="2" d="M1084.5,-287.34C1084.31,-280.75 1084.09,-273.08 1083.88,-265.67"/>
<polygon fill="grey" stroke="grey" stroke-width="2" points="1087.38,-265.82 1083.6,-255.93 1080.39,-266.02 1087.38,-265.82"/>
</g>
<!-- 21&#45;&gt;25 -->
<g id="edge87" class="edge">
<title>21&#45;&gt;25</title>
<path fill="none" stroke="grey" stroke-width="2" d="M1044.75,-288.53C1022.7,-278.91 995.22,-265.95 972,-252 949.14,-238.27 946.19,-230.79 924,-216 909.09,-206.06 892.28,-195.9 877.26,-187.17"/>
<polygon fill="grey" stroke="grey" stroke-width="2" points="879.22,-184.26 868.81,-182.31 875.73,-190.33 879.22,-184.26"/>
</g>
<!-- 22&#45;&gt;17 -->
<g id="edge59" class="edge">
<title>22&#45;&gt;17</title>
<path fill="none" stroke="grey" stroke-width="2" d="M408.41,-215.14C421.67,-194.21 446.67,-160.31 478,-144 543.32,-109.99 758.96,-97.09 859.51,-92.83"/>
<polygon fill="grey" stroke="grey" stroke-width="2" points="859.46,-96.34 869.31,-92.44 859.18,-89.35 859.46,-96.34"/>
</g>
<!-- 22&#45;&gt;25 -->
<g id="edge86" class="edge">
<title>22&#45;&gt;25</title>
<path fill="none" stroke="grey" stroke-width="2" d="M464.22,-222.37C552.38,-208.21 706.3,-183.5 784.84,-170.89"/>
<polygon fill="grey" stroke="grey" stroke-width="2" points="785.38,-174.35 794.7,-169.31 784.27,-167.44 785.38,-174.35"/>
</g>
<!-- 23 -->
<g id="node24" class="node">
<title>23</title>
<path fill="none" stroke="#8fd856" stroke-width="2" d="M1202,-252C1202,-252 1144,-252 1144,-252 1138,-252 1132,-246 1132,-240 1132,-240 1132,-228 1132,-228 1132,-222 1138,-216 1144,-216 1144,-216 1202,-216 1202,-216 1208,-216 1214,-222 1214,-228 1214,-228 1214,-240 1214,-240 1214,-246 1208,-252 1202,-252"/>
<text text-anchor="middle" x="1173" y="-231.5" font-family="sans" font-size="10.00">make_graphs</text>
</g>
<!-- 23&#45;&gt;17 -->
<g id="edge50" class="edge">
<title>23&#45;&gt;17</title>
<path fill="none" stroke="grey" stroke-width="2" d="M1140.78,-215.17C1108.13,-197.12 1056.13,-168.48 1011,-144 993.32,-134.41 973.8,-123.94 956.81,-114.86"/>
<polygon fill="grey" stroke="grey" stroke-width="2" points="958.64,-111.87 948.17,-110.24 955.34,-118.04 958.64,-111.87"/>
</g>
<!-- 23&#45;&gt;25 -->
<g id="edge82" class="edge">
<title>23&#45;&gt;25</title>
<path fill="none" stroke="grey" stroke-width="2" d="M1131.12,-218.27C1128.39,-217.46 1125.66,-216.69 1123,-216 1039.87,-194.37 941.07,-178.27 883.17,-169.77"/>
<polygon fill="grey" stroke="grey" stroke-width="2" points="883.81,-166.33 873.41,-168.36 882.81,-173.26 883.81,-166.33"/>
</g>
<!-- 24&#45;&gt;17 -->
<g id="edge45" class="edge">
<title>24&#45;&gt;17</title>
<path fill="none" stroke="grey" stroke-width="2" d="M1337.74,-215.31C1321.1,-194.54 1290.55,-160.81 1256,-144 1205.7,-119.53 1048.23,-102.73 964.91,-95.31"/>
<polygon fill="grey" stroke="grey" stroke-width="2" points="965.24,-91.82 954.98,-94.44 964.63,-98.8 965.24,-91.82"/>
</g>
<!-- 24&#45;&gt;25 -->
<g id="edge76" class="edge">
<title>24&#45;&gt;25</title>
<path fill="none" stroke="grey" stroke-width="2" d="M1269.65,-221.99C1161.08,-207.29 972.17,-181.71 883.12,-169.65"/>
<polygon fill="grey" stroke="grey" stroke-width="2" points="883.85,-166.22 873.47,-168.34 882.91,-173.15 883.85,-166.22"/>
</g>
<!-- 25&#45;&gt;17 -->
<g id="edge46" class="edge">
<title>25&#45;&gt;17</title>
<path fill="none" stroke="grey" stroke-width="2" d="M853.68,-143.34C862.39,-135.52 872.82,-126.16 882.43,-117.53"/>
<polygon fill="grey" stroke="grey" stroke-width="2" points="884.69,-120.21 889.8,-110.92 880.02,-115 884.69,-120.21"/>
</g>
</g>
</svg>
